<?xml version="1.0" encoding="utf-8"?>
<svg viewBox="0 0 512 111" xmlns="http://www.w3.org/2000/svg">
  <g id="Layer_2" display="none" transform="matrix(1, 0, 0, 1, 0, 1.4210854715202004e-14)">
    <rect display="inline" fill="#811AFF" width="512" height="111"/>
  </g>
  <g id="Layer_1" display="none" transform="matrix(1, 0, 0, 1, 0, 1.4210854715202004e-14)">
    <g display="inline">
      <path fill="#FFFFFF" d="M69.517,27.958c0,15.328-12.426,27.754-27.754,27.754c-15.332,0-27.756-12.426-27.756-27.754 c0-15.326,12.424-27.754,27.756-27.754C57.091,0.205,69.517,12.632,69.517,27.958"/>
      <path fill="#005497" d="M41.765,9.87c-9.945,0-18.004,8.058-18.004,17.994c0,9.941,8.059,18.001,18.003,18.001 c9.938,0,17.998-8.06,17.998-18.001C59.761,17.927,51.702,9.868,41.765,9.87 M41.763,45.498 c-9.742,0.003-17.637-7.894-17.637-17.634c0-9.733,7.895-17.629,17.637-17.629c9.739,0,17.634,7.896,17.634,17.629 C59.397,37.604,51.502,45.498,41.763,45.498 M22.364,31.684c-0.036-0.177-0.084-0.333-0.148-0.477 c-0.06-0.144-0.148-0.26-0.254-0.354c-0.093-0.085-0.201-0.147-0.322-0.189c-0.184-0.068-0.377-0.082-0.583-0.04 c-0.197,0.04-0.358,0.122-0.476,0.238c-0.12,0.119-0.199,0.271-0.225,0.464c-0.082-0.106-0.163-0.179-0.25-0.226 c-0.148-0.079-0.329-0.096-0.541-0.05c-0.205,0.042-0.371,0.13-0.494,0.268c-0.201,0.225-0.266,0.548-0.184,0.969l0.347,1.668 l3.451-0.712L22.364,31.684z M19.694,33.142l-0.157-0.75c-0.038-0.165-0.046-0.307-0.036-0.418 c0.032-0.135,0.121-0.222,0.286-0.251c0.142-0.031,0.257-0.004,0.33,0.077c0.077,0.08,0.13,0.196,0.161,0.349l0.174,0.836 L19.694,33.142z M21.021,32.865l-0.176-0.847c-0.027-0.148-0.03-0.268-0.009-0.357c0.036-0.161,0.144-0.261,0.322-0.297 c0.212-0.043,0.372,0.004,0.479,0.138c0.057,0.075,0.101,0.188,0.134,0.338l0.172,0.838L21.021,32.865z M20.206,29.206 c0.63,0.014,1.119-0.159,1.46-0.51c0.281-0.263,0.423-0.644,0.431-1.149c0.009-0.504-0.124-0.891-0.393-1.161 c-0.332-0.359-0.812-0.547-1.443-0.556c-0.647-0.011-1.132,0.159-1.465,0.508c-0.276,0.262-0.421,0.645-0.431,1.147 c-0.003,0.508,0.124,0.894,0.393,1.166C19.078,29.011,19.559,29.199,20.206,29.206 M19.324,26.807 c0.22-0.168,0.525-0.25,0.921-0.243c0.399,0.006,0.704,0.098,0.913,0.272c0.214,0.174,0.32,0.41,0.314,0.699 c-0.005,0.293-0.117,0.526-0.333,0.693c-0.218,0.172-0.525,0.254-0.925,0.247c-0.395-0.008-0.699-0.097-0.912-0.275 c-0.212-0.177-0.314-0.41-0.311-0.702C18.996,27.204,19.108,26.974,19.324,26.807 M21.105,21.154l1.837,0.45l-0.116,0.476 l-0.445-0.033c0.127,0.177,0.212,0.329,0.252,0.458c0.068,0.214,0.068,0.461,0,0.739c-0.112,0.452-0.361,0.786-0.744,0.998 c-0.391,0.222-0.859,0.269-1.407,0.134c-0.556-0.134-0.961-0.397-1.22-0.786c-0.261-0.385-0.327-0.829-0.205-1.333 c0.108-0.436,0.304-0.756,0.588-0.966c0.285-0.21,0.599-0.294,0.938-0.251l-0.174,0.703c-0.245-0.002-0.444,0.089-0.587,0.276 c-0.082,0.103-0.139,0.232-0.174,0.375c-0.064,0.276-0.02,0.527,0.146,0.755c0.163,0.23,0.457,0.395,0.872,0.495 c0.422,0.104,0.742,0.08,0.967-0.068c0.219-0.15,0.359-0.347,0.421-0.588c0.057-0.24,0.035-0.455-0.062-0.643 c-0.099-0.186-0.256-0.327-0.472-0.417l-0.192,0.792l-0.574-0.142L21.105,21.154z M18.473,22.714 c-0.146,0.11-0.34,0.146-0.583,0.108l0.075-0.313c0.15,0.013,0.265-0.036,0.349-0.152c0.047-0.063,0.085-0.147,0.106-0.251 c0.026-0.106,0.031-0.199,0.022-0.277c-0.02-0.14-0.098-0.237-0.233-0.293l0.074-0.315c0.235,0.08,0.391,0.201,0.466,0.367 c0.082,0.166,0.089,0.369,0.033,0.604C18.723,22.428,18.621,22.605,18.473,22.714 M24.458,18.262l0.36-0.714l-3.714-0.455 l-0.371,0.744l2.593,2.701l0.345-0.69l-0.542-0.537l0.578-1.161L24.458,18.262z M22.675,18.861l-1.039-1.031l1.441,0.223 L22.675,18.861z M23.062,14.988l-0.493-0.385l1.644-2.106l0.465,0.363l0.705,2.863l1.123-1.443l0.492,0.382l-1.675,2.145 l-0.492-0.38l-0.688-2.823L23.062,14.988z M25.184,10.947l-0.391-0.412l0.45-0.432l0.393,0.412L25.184,10.947z M25.417,11.273 l0.53-0.505l2.435,2.55l-0.533,0.506L25.417,11.273z M28.319,11.021c-0.353-0.506-0.486-0.991-0.408-1.449 c0.07-0.401,0.285-0.724,0.648-0.973c0.483-0.333,0.949-0.417,1.393-0.248c0.248,0.095,0.438,0.229,0.572,0.405l-0.608,0.418 C29.783,9.06,29.664,8.99,29.548,8.96c-0.192-0.052-0.396-0.005-0.609,0.142c-0.217,0.148-0.324,0.356-0.329,0.618 c-0.002,0.265,0.108,0.56,0.333,0.886c0.224,0.324,0.457,0.524,0.703,0.596c0.243,0.07,0.467,0.037,0.666-0.104 c0.212-0.142,0.322-0.322,0.335-0.537c0.008-0.115-0.02-0.261-0.082-0.438l0.602-0.416c0.166,0.351,0.21,0.702,0.132,1.048 c-0.077,0.346-0.264,0.622-0.567,0.828l0.002,0.26c0.038-0.04,0.063-0.067,0.082-0.083c0.016-0.016,0.033-0.03,0.053-0.045 c0.107-0.074,0.21-0.107,0.307-0.096c0.103,0.007,0.184,0.061,0.252,0.157c0.082,0.122,0.097,0.252,0.047,0.39 c-0.047,0.137-0.154,0.261-0.309,0.367c-0.065,0.045-0.154,0.087-0.27,0.124c-0.055,0.018-0.129,0.038-0.226,0.064L30.63,12.5 c0.09-0.029,0.15-0.052,0.183-0.063c0.076-0.028,0.133-0.055,0.17-0.083c0.079-0.054,0.124-0.109,0.135-0.164 c0.014-0.058,0.006-0.105-0.022-0.141c-0.038-0.058-0.082-0.081-0.134-0.078c-0.054,0.002-0.103,0.019-0.146,0.049 c-0.024,0.018-0.051,0.038-0.073,0.063c-0.02,0.024-0.046,0.053-0.07,0.084l-0.138-0.021l-0.018-0.416 c-0.307,0.21-0.666,0.264-1.089,0.158C29.01,11.78,28.639,11.491,28.319,11.021 M31.367,6.578l-0.241-0.512l0.562-0.267 l0.244,0.513L31.367,6.578z M31.486,6.963l0.66-0.316l1.509,3.189l-0.663,0.314L31.486,6.963z M37.885,4.569L37.789,4.01 l0.614-0.106l0.101,0.557L37.885,4.569z M36.941,4.733l-0.095-0.559l0.614-0.107l0.099,0.559L36.941,4.733z M36.751,7.297 l-0.371-2.134l0.739-0.128l0.369,2.134c0.042,0.239,0.099,0.406,0.174,0.505c0.123,0.181,0.33,0.245,0.624,0.195 c0.297-0.051,0.469-0.182,0.521-0.391c0.038-0.119,0.038-0.302-0.007-0.54l-0.373-2.133l0.742-0.128l0.373,2.133 c0.06,0.373,0.055,0.669-0.025,0.895c-0.15,0.416-0.522,0.674-1.123,0.778s-1.043-0.016-1.322-0.355 C36.923,7.946,36.815,7.667,36.751,7.297 M41.837,8.092l-0.683-0.026l0.139-3.523l0.77,0.029l1.304,2.512l0.097-2.458l0.685,0.03 l-0.14,3.522l-0.734-0.03l-1.336-2.557L41.837,8.092z M46.796,4.717l-0.61-0.123l0.112-0.557l0.61,0.125L46.796,4.717z M46.066,8.571l-0.717-0.146l0.7-3.456l0.715,0.146L46.066,8.571z M48.972,9.458l-0.652-0.242l0.11-3.719l0.735,0.272 l-0.212,2.776l1.652-2.24l0.722,0.266L48.972,9.458z M51.122,10.416l1.863-2.996l2.195,1.364l-0.331,0.529L53.267,8.33 l-0.398,0.635l1.457,0.904l-0.322,0.521l-1.456-0.904l-0.477,0.769l1.655,1.029l-0.333,0.538L51.122,10.416z M54.924,13.111 l0.953-1.002l0.52,0.497c0.148,0.142,0.226,0.267,0.226,0.371c0.005,0.107-0.071,0.242-0.226,0.407l-0.225,0.241 c-0.066,0.074-0.132,0.156-0.186,0.241c-0.024,0.041-0.06,0.096-0.093,0.17l0.585,0.56l0.062-0.063 c-0.019-0.081-0.006-0.161,0.04-0.24c0.032-0.052,0.102-0.134,0.215-0.251l0.165-0.171c0.168-0.18,0.27-0.335,0.306-0.469 c0.032-0.134,0.013-0.28-0.06-0.44c0.19,0.086,0.369,0.101,0.542,0.042s0.316-0.151,0.432-0.271 c0.097-0.1,0.165-0.205,0.207-0.312c0.046-0.109,0.073-0.223,0.08-0.337c0.009-0.141-0.013-0.275-0.071-0.407 c-0.055-0.129-0.168-0.279-0.339-0.448l-1.22-1.165l-2.433,2.551L54.924,13.111z M56.935,11.005l0.589,0.56 c0.108,0.103,0.176,0.197,0.202,0.278c0.049,0.147-0.001,0.3-0.151,0.452c-0.137,0.144-0.277,0.191-0.423,0.144 c-0.083-0.025-0.184-0.095-0.296-0.204l-0.576-0.546L56.935,11.005z M58.309,15.769c-0.049,0.182,0.011,0.396,0.182,0.638 c0.098,0.148,0.195,0.257,0.289,0.325c0.176,0.129,0.353,0.141,0.517,0.029c0.096-0.069,0.14-0.161,0.136-0.282 c-0.009-0.12-0.058-0.285-0.144-0.496l-0.146-0.36c-0.148-0.358-0.218-0.623-0.217-0.793c-0.001-0.287,0.14-0.529,0.427-0.726 c0.258-0.177,0.54-0.232,0.845-0.16c0.305,0.072,0.583,0.296,0.837,0.667c0.213,0.31,0.315,0.627,0.304,0.959 c-0.013,0.33-0.17,0.608-0.47,0.831l-0.402-0.583c0.169-0.133,0.239-0.295,0.213-0.491c-0.02-0.129-0.077-0.27-0.177-0.413 c-0.108-0.161-0.229-0.265-0.36-0.318c-0.127-0.052-0.247-0.039-0.364,0.038c-0.101,0.072-0.147,0.172-0.135,0.303 c0.011,0.084,0.059,0.24,0.151,0.467l0.229,0.593c0.096,0.261,0.145,0.477,0.134,0.646c-0.018,0.268-0.157,0.49-0.413,0.667 c-0.268,0.183-0.558,0.234-0.876,0.148c-0.315-0.082-0.605-0.313-0.861-0.687c-0.261-0.383-0.383-0.743-0.362-1.081 c0.023-0.339,0.184-0.611,0.484-0.819l0.401,0.579C58.413,15.563,58.335,15.667,58.309,15.769 M63.245,17.881l-0.271-0.563 l0.513-0.245l0.271,0.561L63.245,17.881z M59.417,18.969l3.174-1.532l0.317,0.66l-3.175,1.531L59.417,18.969z M63.523,21.507 l-2.768,0.863l-0.222-0.71l2.772-0.859l-0.316-1.013l0.599-0.185l0.844,2.727l-0.593,0.183L63.523,21.507z M61.279,24.51 l3.507-0.378l0.275,2.572l-0.62,0.065l-0.2-1.854l-0.744,0.079l0.183,1.705l-0.61,0.063l-0.182-1.702l-0.899,0.098l0.206,1.937 l-0.633,0.068L61.279,24.51z M64.448,29.912c0.02-0.191-0.007-0.351-0.071-0.474c-0.063-0.122-0.166-0.188-0.302-0.201 c-0.126-0.013-0.228,0.036-0.296,0.144c-0.049,0.071-0.11,0.222-0.188,0.454l-0.206,0.603c-0.083,0.264-0.189,0.459-0.309,0.584 c-0.184,0.195-0.433,0.277-0.746,0.248c-0.32-0.03-0.576-0.178-0.764-0.447c-0.191-0.266-0.265-0.626-0.223-1.079 c0.044-0.463,0.179-0.816,0.412-1.061c0.233-0.248,0.533-0.353,0.898-0.321l-0.064,0.703c-0.163,0.008-0.286,0.04-0.373,0.098 c-0.154,0.11-0.245,0.312-0.275,0.607c-0.014,0.176-0.007,0.32,0.02,0.436c0.052,0.214,0.181,0.332,0.38,0.351 c0.115,0.011,0.209-0.034,0.285-0.13c0.068-0.095,0.139-0.254,0.207-0.47l0.119-0.374c0.114-0.363,0.228-0.615,0.34-0.744 c0.181-0.222,0.446-0.319,0.792-0.287c0.312,0.028,0.563,0.168,0.75,0.419c0.187,0.25,0.261,0.597,0.22,1.049 c-0.034,0.373-0.161,0.684-0.383,0.931c-0.22,0.245-0.516,0.357-0.889,0.337l0.063-0.703c0.214,0.006,0.37-0.076,0.476-0.243 C64.393,30.229,64.436,30.086,64.448,29.912 M61.023,32.332l3.417,0.859l-0.178,0.71l-3.421-0.858L61.023,32.332z M65.361,33.483 l-0.152,0.604l-0.552-0.138l0.155-0.604L65.361,33.483z M35.444,46.602l0.55,0.184l-1.114,3.343l-0.671-0.226l0.766-2.306 l-0.786-0.26l0.15-0.452c0.208,0.065,0.358,0.098,0.449,0.104c0.141,0.016,0.267-0.007,0.377-0.066 c0.08-0.042,0.148-0.108,0.211-0.198C35.413,46.669,35.436,46.628,35.444,46.602 M39.611,47.498 c-0.351-0.038-0.63,0.022-0.842,0.182c-0.212,0.159-0.333,0.367-0.361,0.62c-0.011,0.116,0,0.239,0.038,0.377 c0.04,0.135,0.138,0.271,0.294,0.399c-0.18,0.062-0.324,0.17-0.431,0.32c-0.104,0.151-0.165,0.322-0.187,0.52 c-0.033,0.295,0.042,0.558,0.22,0.783c0.182,0.231,0.466,0.364,0.859,0.408c0.391,0.042,0.708-0.03,0.949-0.214 c0.241-0.182,0.376-0.423,0.406-0.717c0.022-0.196-0.002-0.38-0.07-0.55c-0.075-0.167-0.188-0.308-0.354-0.426 c0.181-0.077,0.302-0.178,0.367-0.305c0.066-0.127,0.104-0.247,0.115-0.362c0.031-0.25-0.042-0.48-0.219-0.682 C40.223,47.652,39.961,47.532,39.611,47.498 M39.85,50.055c-0.016,0.17-0.075,0.3-0.175,0.386 c-0.099,0.086-0.227,0.12-0.386,0.103c-0.158-0.017-0.278-0.078-0.355-0.182c-0.08-0.104-0.112-0.243-0.093-0.413 c0.023-0.182,0.08-0.312,0.182-0.395c0.099-0.081,0.229-0.114,0.383-0.098c0.155,0.017,0.271,0.076,0.351,0.176 C39.84,49.735,39.869,49.874,39.85,50.055 M39.947,48.542c-0.014,0.127-0.062,0.227-0.15,0.3c-0.084,0.07-0.197,0.102-0.338,0.088 c-0.139-0.019-0.243-0.068-0.313-0.157c-0.07-0.09-0.097-0.195-0.082-0.326c0.012-0.139,0.062-0.243,0.151-0.311 c0.085-0.071,0.2-0.098,0.339-0.084c0.139,0.018,0.243,0.068,0.313,0.152C39.934,48.292,39.961,48.405,39.947,48.542 M44.914,48.974c-0.218-0.19-0.485-0.27-0.799-0.235c-0.141,0.014-0.269,0.049-0.377,0.109c-0.108,0.057-0.201,0.143-0.273,0.251 c-0.007-0.271,0.004-0.479,0.04-0.624c0.073-0.26,0.219-0.404,0.443-0.426c0.148-0.018,0.265,0.027,0.352,0.13 c0.051,0.063,0.08,0.122,0.085,0.177l0.684-0.07c-0.053-0.275-0.181-0.486-0.394-0.633c-0.212-0.146-0.479-0.202-0.806-0.167 c-0.226,0.023-0.411,0.095-0.565,0.215c-0.15,0.119-0.266,0.27-0.349,0.448c-0.095,0.212-0.148,0.469-0.157,0.772 c-0.004,0.17,0.007,0.387,0.036,0.656c0.048,0.455,0.168,0.818,0.359,1.091c0.249,0.345,0.593,0.496,1.036,0.45 c0.41-0.044,0.698-0.199,0.871-0.47c0.169-0.271,0.231-0.569,0.199-0.894C45.263,49.421,45.135,49.164,44.914,48.974 M44.521,50.345c-0.076,0.123-0.188,0.194-0.339,0.209c-0.159,0.017-0.294-0.026-0.408-0.137 c-0.115-0.108-0.178-0.258-0.201-0.446c-0.025-0.233,0.027-0.41,0.15-0.529c0.081-0.08,0.184-0.127,0.3-0.139 c0.146-0.016,0.274,0.025,0.386,0.126c0.11,0.099,0.174,0.249,0.199,0.454C44.625,50.067,44.596,50.218,44.521,50.345 M49.868,48.627c0.095,0.282,0.08,0.563-0.047,0.846c-0.124,0.278-0.379,0.482-0.763,0.607c-0.475,0.157-0.854,0.11-1.139-0.137 c-0.152-0.133-0.277-0.331-0.375-0.594l0.647-0.211c0.042,0.132,0.102,0.236,0.174,0.309c0.13,0.134,0.305,0.17,0.514,0.102 c0.128-0.047,0.228-0.126,0.294-0.245c0.066-0.122,0.073-0.264,0.017-0.431c-0.073-0.22-0.211-0.337-0.412-0.353 c-0.115-0.006-0.283,0.022-0.499,0.095l-0.157-0.467c0.213-0.075,0.355-0.146,0.428-0.212c0.124-0.112,0.152-0.268,0.085-0.463 c-0.041-0.128-0.112-0.221-0.213-0.276c-0.098-0.056-0.219-0.06-0.354-0.015c-0.154,0.05-0.254,0.136-0.291,0.26 c-0.042,0.121-0.032,0.267,0.024,0.428l-0.614,0.204c-0.049-0.166-0.073-0.336-0.073-0.501c0.014-0.148,0.058-0.296,0.137-0.444 c0.057-0.108,0.141-0.203,0.245-0.282c0.106-0.082,0.243-0.15,0.415-0.208c0.319-0.104,0.605-0.105,0.856-0.009 c0.252,0.104,0.421,0.294,0.514,0.569c0.065,0.199,0.063,0.385-0.01,0.559c-0.045,0.108-0.102,0.19-0.172,0.247 c0.059-0.017,0.161,0.004,0.306,0.068C49.626,48.173,49.78,48.355,49.868,48.627 M22.612,37.453 c-0.198,0.36-0.652,0.489-1.015,0.289c-0.358-0.196-0.486-0.651-0.287-1.011c0.198-0.357,0.647-0.492,1.011-0.289 C22.683,36.633,22.813,37.088,22.612,37.453 M62.298,36.958c0.069,0.403-0.203,0.79-0.609,0.858 c-0.404,0.071-0.787-0.196-0.855-0.606c-0.077-0.404,0.194-0.791,0.606-0.86C61.845,36.278,62.23,36.552,62.298,36.958 M41.763,53.647c-14.245,0-25.786-11.541-25.786-25.781c0-14.239,11.541-25.782,25.786-25.782 c14.237,0,25.781,11.543,25.781,25.782C67.544,42.106,56,53.647,41.763,53.647 M67.178,27.866 c0-14.037-11.378-25.417-25.415-25.417c-14.042,0-25.422,11.38-25.422,25.417c0,14.038,11.38,25.417,25.422,25.417 C55.799,53.283,67.178,41.904,67.178,27.866"/>
      <path fill="#005497" d="M41.763,12.284l-15.589,15.58l5.438,0.002c0,4.605,3.734,8.334,8.338,8.334 c4.605,0,8.339-3.729,8.339-8.337l-13.052,0.002c0-4.605,3.734-8.335,8.34-8.335c4.603,0,8.337,3.73,8.337,8.333h5.435 L41.763,12.284z"/>
      <path fill="#66C7EB" d="M51.914,27.864c0-4.603-3.735-8.333-8.337-8.333c-4.605,0-8.339,3.73-8.339,8.333l13.05,0.002 c0,4.606-3.734,8.334-8.339,8.334c-4.604,0-8.337-3.734-8.337-8.337h-5.437l15.59,15.586L57.35,27.866L51.914,27.864z"/>
    </g>
    <g display="inline">
      <polyline fill="#FFFFFF" points="16.947,82.914 16.947,101.42 13.276,101.42 13.276,102.078 24.665,102.078 24.665,101.42 &#10;&#9;&#9;&#9;20.994,101.42 20.994,81.266 &#9;&#9;"/>
      <rect x="16.619" y="79.165" transform="matrix(-0.3731 -0.9278 0.9278 -0.3731 -53.9664 130.0659)" fill="#FFFFFF" width="0.678" height="8.199"/>
      <g>
        <path fill="#FFFFFF" d="M35.487,81.77c0.393-0.846,0.91-1.535,1.554-2.07c0.643-0.533,1.38-0.926,2.211-1.178 c0.831-0.25,1.671-0.375,2.518-0.375c1.318,0,2.369,0.268,3.153,0.799c0.785,0.533,1.38,1.248,1.789,2.143 c0.408,0.895,0.675,1.922,0.8,3.08c0.125,1.162,0.188,2.387,0.188,3.674c0,1.535-0.071,2.939-0.212,4.211 c-0.141,1.271-0.431,2.369-0.871,3.295c-0.439,0.926-1.066,1.645-1.882,2.164c-0.816,0.52-1.882,0.775-3.201,0.775 c-1.381,0-2.502-0.297-3.365-0.893c-0.864-0.596-1.538-1.467-2.023-2.613c-0.487-1.143-0.816-2.557-0.989-4.234 s-0.259-3.584-0.259-5.719C34.899,83.637,35.095,82.617,35.487,81.77 M35.04,81.158l-0.094-0.094 c0.22-2.039,0.541-4.031,0.965-5.977c0.423-1.945,0.995-3.688,1.717-5.225c0.721-1.537,1.647-2.775,2.776-3.717 c1.129-0.941,2.51-1.414,4.142-1.414c0.847,0,1.553,0.189,2.118,0.566s0.847,0.926,0.847,1.646c0,0.408-0.063,0.777-0.188,1.107 c-0.125,0.328-0.266,0.635-0.423,0.916c-0.158,0.283-0.299,0.559-0.423,0.824c-0.126,0.268-0.188,0.525-0.188,0.775 c0,0.41,0.171,0.754,0.517,1.037c0.346,0.281,0.895,0.422,1.648,0.422c0.815,0,1.466-0.203,1.952-0.611 c0.486-0.406,0.729-1.004,0.729-1.789c0-0.627-0.125-1.27-0.376-1.928c-0.251-0.66-0.635-1.254-1.153-1.789 c-0.517-0.533-1.169-0.973-1.953-1.318c-0.785-0.346-1.726-0.516-2.824-0.516c-1.757,0-3.491,0.486-5.2,1.459 c-1.71,0.973-3.232,2.352-4.565,4.141c-1.334,1.789-2.416,3.961-3.247,6.518c-0.832,2.559-1.248,5.436-1.248,8.635 c0,2.197,0.298,4.166,0.894,5.906c0.596,1.742,1.389,3.217,2.377,4.424c0.988,1.209,2.149,2.135,3.482,2.777 s2.721,0.963,4.166,0.963c1.348,0,2.674-0.273,3.977-0.822c1.301-0.547,2.47-1.301,3.506-2.26c1.035-0.957,1.866-2.1,2.494-3.434 c0.627-1.334,0.941-2.783,0.941-4.354c0-1.475-0.282-2.855-0.847-4.143c-0.564-1.285-1.325-2.4-2.283-3.34 c-0.957-0.941-2.07-1.688-3.341-2.236c-1.271-0.549-2.628-0.824-4.071-0.824c-1.6,0-2.988,0.354-4.165,1.061 C36.523,79.254,35.636,80.121,35.04,81.158"/>
        <path fill="#FFFFFF" d="M69.918,91.625c0,2.133-0.14,3.846-0.42,5.145c-0.281,1.297-0.647,2.301-1.099,3.012 s-0.977,1.182-1.575,1.414c-0.599,0.23-1.215,0.348-1.85,0.348c-0.635,0-1.252-0.117-1.85-0.348 c-0.598-0.232-1.124-0.703-1.575-1.414c-0.452-0.711-0.819-1.715-1.099-3.012c-0.281-1.299-0.421-3.012-0.421-5.145 c0-2.129,0.14-3.846,0.421-5.143c0.28-1.299,0.647-2.303,1.099-3.012c0.452-0.711,0.977-1.182,1.575-1.414 c0.598-0.23,1.214-0.346,1.85-0.346c0.635,0,1.251,0.115,1.85,0.346c0.598,0.232,1.123,0.703,1.575,1.414 c0.452,0.709,0.818,1.713,1.099,3.012C69.778,87.779,69.918,89.496,69.918,91.625 M73.472,91.625c0-1.514-0.257-2.91-0.77-4.193 c-0.513-1.281-1.172-2.393-1.978-3.336c-0.807-0.941-1.716-1.684-2.729-2.225c-1.014-0.539-2.021-0.811-3.022-0.811 c-1.001,0-2.009,0.271-3.022,0.811c-1.014,0.541-1.923,1.283-2.729,2.225c-0.806,0.943-1.465,2.055-1.978,3.336 c-0.513,1.283-0.769,2.68-0.769,4.193c0,1.422,0.238,2.766,0.714,4.031c0.477,1.268,1.111,2.379,1.905,3.338 c0.793,0.957,1.697,1.721,2.71,2.293s2.069,0.857,3.168,0.857c1.099,0,2.154-0.285,3.168-0.857 c1.013-0.572,1.917-1.336,2.71-2.293c0.792-0.959,1.428-2.07,1.904-3.338C73.234,94.391,73.472,93.047,73.472,91.625"/>
      </g>
      <path fill="#FFFFFF" d="M24.667,76.479H0.655v-1.57h24.012V76.479z M1.439,75.693h22.444H1.439z"/>
      <path fill="#FFFFFF" d="M80.689,76.479H56.678v-1.57h24.012V76.479z M57.462,75.693h22.443H57.462z"/>
      <path fill="#FFFFFF" d="M48.462,110.795v-0.934h-2.784v-4.566h-1.12v5.5H48.462z M42.376,105.25h-1.12v5.545h1.12V105.25z M37.611,110.795v-2.326l2.039-3.219h-1.29l-1.278,2.193l-1.305-2.193h-1.313l2.031,3.209v2.336H37.611z"/>
      <g>
        <path fill="#FFFFFF" d="M75.828,102.432c0.696,0,1.259-0.564,1.259-1.26c0-0.693-0.563-1.258-1.259-1.258 c-0.695,0-1.258,0.564-1.258,1.258C74.57,101.867,75.133,102.432,75.828,102.432"/>
      </g>
      <rect x="1.047" y="107.561" fill="#FFFFFF" width="29.13" height="0.783"/>
      <path fill="#FFFFFF" d="M30.569,108.736H0.655v-1.568h29.915V108.736z M1.439,107.951h28.346H1.439z"/>
      <rect x="51.167" y="107.561" fill="#005497" width="29.131" height="0.783"/>
      <path fill="#FFFFFF" d="M80.689,108.736H50.775v-1.568h29.915V108.736z M51.559,107.951h28.346H51.559z"/>
    </g>
    <g display="inline">
      <rect x="108.915" y="49.194" fill="none" width="537.666" height="72.702"/>
      <path fill="#FFFFFF" stroke="#FFFFFF" stroke-width="0.25" stroke-miterlimit="10" d="M113.672,54.324 c0-4.409,0-5.221-0.058-6.149c-0.058-0.986-0.29-1.451-1.248-1.653c-0.232-0.058-0.725-0.087-1.131-0.087 c-0.319,0-0.493-0.058-0.493-0.261c0-0.203,0.203-0.261,0.638-0.261c1.537,0,3.365,0.087,3.945,0.087 c1.421,0,2.553-0.087,3.539-0.087c5.25,0,6.179,2.814,6.179,4.351c0,2.378-1.363,3.8-2.959,5.076 c2.379,0.812,5.279,2.872,5.279,6.266c0,3.104-2.407,6.322-7.745,6.322c-0.348,0-1.189-0.058-2.031-0.086 c-0.87-0.06-1.74-0.088-2.175-0.088c-0.319,0-0.957,0-1.653,0.028c-0.667,0-1.421,0.06-2.001,0.06c-0.377,0-0.58-0.088-0.58-0.291 c0-0.146,0.116-0.23,0.464-0.23c0.435,0,0.783-0.059,1.044-0.117c0.58-0.115,0.725-0.754,0.841-1.596 c0.145-1.217,0.145-3.51,0.145-6.178V54.324z M117.153,54.817c0,0.232,0.087,0.29,0.203,0.319 c0.261,0.058,0.696,0.087,1.363,0.087c0.958,0,1.596-0.116,2.089-0.551c0.754-0.609,1.189-1.653,1.189-3.075 c0-1.944-1.131-4.496-3.626-4.496c-0.406,0-0.667,0-0.957,0.058c-0.203,0.058-0.261,0.174-0.261,0.493V54.817z M120.982,57.137 c-0.609-0.435-1.276-0.638-2.408-0.695c-0.522-0.029-0.812-0.029-1.247-0.029c-0.116,0-0.174,0.059-0.174,0.203v6.874 c0,1.915,0.087,2.408,1.016,2.785c0.783,0.318,1.45,0.348,2.117,0.348c1.306,0,3.51-0.695,3.51-3.713 C123.795,61.11,123.186,58.676,120.982,57.137z"/>
      <path fill="#FFFFFF" stroke="#FFFFFF" stroke-width="0.25" stroke-miterlimit="10" d="M132.173,56.876 c0-4.96,3.278-11.371,11.98-11.371c7.223,0,11.719,4.206,11.719,10.849c0,6.644-4.641,11.894-12.009,11.894 C135.538,68.247,132.173,62.011,132.173,56.876z M151.811,57.428c0-6.499-3.742-10.53-8.499-10.53 c-3.335,0-7.136,1.856-7.136,9.079c0,6.034,3.336,10.82,8.905,10.82C147.112,66.797,151.811,65.81,151.811,57.428z"/>
      <path fill="#FFFFFF" stroke="#FFFFFF" stroke-width="0.25" stroke-miterlimit="10" d="M181.565,65.897 c0,0.783-0.029,0.842-0.377,1.045c-1.885,0.984-4.728,1.305-6.991,1.305c-7.106,0-13.401-3.365-13.401-11.371 c0-4.641,2.408-7.89,5.047-9.485c2.785-1.683,5.366-1.886,7.803-1.886c2.001,0,4.554,0.348,5.134,0.464 c0.609,0.116,1.625,0.29,2.292,0.319c0.348,0.029,0.406,0.145,0.406,0.348c0,0.319-0.203,1.131-0.203,4.757 c0,0.464-0.087,0.609-0.319,0.609c-0.203,0-0.261-0.145-0.29-0.377c-0.087-0.667-0.232-1.595-0.986-2.408 c-0.87-0.928-3.191-2.262-6.469-2.262c-1.595,0-3.713,0.116-5.743,1.798c-1.625,1.363-2.669,3.539-2.669,7.106 c0,6.238,3.974,10.908,10.095,10.908c0.754,0,1.77,0,2.465-0.319c0.435-0.203,0.551-0.58,0.551-1.072v-2.728 c0-1.449,0-2.551-0.029-3.422c-0.029-0.985-0.29-1.45-1.248-1.653c-0.232-0.059-0.725-0.088-1.131-0.088 c-0.261,0-0.435-0.057-0.435-0.231c0-0.231,0.203-0.29,0.609-0.29c1.508,0,3.335,0.088,4.206,0.088 c0.899,0,2.437-0.088,3.394-0.088c0.377,0,0.58,0.059,0.58,0.29c0,0.175-0.174,0.231-0.377,0.231 c-0.232,0-0.435,0.029-0.783,0.088c-0.783,0.145-1.073,0.638-1.102,1.653c-0.029,0.871-0.029,2.031-0.029,3.48V65.897 L181.565,65.897z M169.005,41.184l0.958-0.754c0.203-0.174,0.29-0.203,0.377-0.203c0.174,0,0.348,0.377,0.609,0.667 c1.015,1.189,1.914,1.276,2.668,1.276c1.276,0,2.263-0.609,2.553-0.813c0.899-0.696,1.073-1.073,1.276-1.073 c0.145,0,0.232,0.116,0.232,0.261c0,0.435-1.16,1.711-1.828,2.146c-0.957,0.638-1.682,0.986-3.133,0.986 c-0.812,0-2.03-0.348-2.872-1.044c-0.435-0.348-1.073-0.928-1.073-1.16C168.773,41.3,168.918,41.242,169.005,41.184z"/>
      <path fill="#FFFFFF" stroke="#FFFFFF" stroke-width="0.25" stroke-miterlimit="10" d="M192.552,60.444 c-0.145,0-0.203,0.058-0.261,0.232l-1.566,3.973c-0.29,0.727-0.435,1.422-0.435,1.77c0,0.523,0.261,0.9,1.16,0.9h0.436 c0.348,0,0.435,0.058,0.435,0.23c0,0.231-0.174,0.291-0.493,0.291c-0.928,0-2.176-0.088-3.075-0.088 c-0.319,0-1.915,0.088-3.423,0.088c-0.377,0-0.551-0.06-0.551-0.291c0-0.174,0.116-0.23,0.348-0.23 c0.261,0,0.667-0.029,0.899-0.059c1.334-0.175,1.886-1.16,2.466-2.611l7.281-17.983c0.348-0.841,0.522-1.161,0.812-1.161 c0.261,0,0.435,0.261,0.726,0.928c0.696,1.596,5.337,13.199,7.193,17.607c1.103,2.609,1.943,3.018,2.553,3.161 c0.435,0.088,0.87,0.116,1.218,0.116c0.232,0,0.377,0.029,0.377,0.232c0,0.23-0.261,0.289-1.334,0.289 c-1.044,0-3.162,0-5.482-0.059c-0.522-0.028-0.87-0.028-0.87-0.23c0-0.175,0.116-0.232,0.406-0.262 c0.203-0.059,0.406-0.318,0.261-0.668l-2.32-5.975c-0.058-0.146-0.145-0.203-0.291-0.203h-6.47V60.444z M198.47,58.994 c0.145,0,0.174-0.087,0.145-0.174l-2.611-7.136c-0.029-0.116-0.058-0.261-0.145-0.261c-0.087,0-0.145,0.145-0.174,0.261 l-2.669,7.106c-0.029,0.116,0,0.203,0.116,0.203L198.47,58.994L198.47,58.994z"/>
      <path fill="#FFFFFF" stroke="#FFFFFF" stroke-width="0.25" stroke-miterlimit="10" d="M222.249,66.159 c2.959,0,4.09-0.727,4.554-1.596c0.261-0.465,0.435-0.986,0.522-1.394c0.058-0.29,0.116-0.465,0.29-0.465 c0.232,0,0.29,0.203,0.29,0.899c0,0.929-0.377,2.813-0.58,3.539c-0.145,0.521-0.348,0.754-0.87,0.754 c-4.844,0-9.717-0.146-15.577-0.146c-0.319,0-0.493-0.087-0.493-0.29s0.087-0.348,0.435-0.869 c4.09-6.383,8.383-12.938,12.27-19.059h-5.686c-1.479,0-3.249,0.087-4.177,0.609c-0.958,0.522-1.479,1.596-1.566,2.263 c-0.058,0.406-0.174,0.522-0.348,0.522c-0.203,0-0.232-0.145-0.232-0.493c0-0.667,0.435-3.307,0.58-4.177 c0.058-0.406,0.174-0.551,0.348-0.551c0.261,0,0.435,0.174,1.16,0.203c2.756,0.116,4.148,0.087,5.337,0.087h8.847 c0.29,0,0.493,0.087,0.493,0.232c0,0.174-0.116,0.348-0.232,0.551c-4.003,6.498-8.412,13.14-12.502,19.377h7.137V66.159z"/>
      <path fill="#FFFFFF" stroke="#FFFFFF" stroke-width="0.25" stroke-miterlimit="10" d="M235.762,54.324 c0-4.409,0-5.221-0.058-6.149c-0.058-0.986-0.348-1.479-0.986-1.625c-0.319-0.087-0.696-0.116-1.044-0.116 c-0.29,0-0.464-0.058-0.464-0.29c0-0.174,0.232-0.232,0.696-0.232c1.102,0,2.93,0.087,3.771,0.087 c0.726,0,2.437-0.087,3.539-0.087c0.377,0,0.609,0.058,0.609,0.232c0,0.232-0.174,0.29-0.464,0.29s-0.522,0.029-0.87,0.087 c-0.783,0.145-1.015,0.638-1.073,1.653c-0.058,0.928-0.058,1.74-0.058,6.149v5.105c0,2.813,0,5.104,0.116,6.353 c0.087,0.782,0.29,1.306,1.16,1.421c0.406,0.059,1.044,0.117,1.479,0.117c0.319,0,0.464,0.086,0.464,0.23 c0,0.203-0.232,0.291-0.551,0.291c-1.914,0-3.742-0.088-4.525-0.088c-0.667,0-2.495,0.088-3.655,0.088 c-0.377,0-0.58-0.088-0.58-0.291c0-0.146,0.116-0.23,0.464-0.23c0.435,0,0.783-0.059,1.044-0.117 c0.58-0.115,0.754-0.607,0.841-1.449c0.145-1.219,0.145-3.51,0.145-6.324V54.324L235.762,54.324z M235.935,42.054 c0-0.725,0.464-1.683,1.625-1.683c0.928,0,1.653,0.609,1.653,1.566c0,0.958-0.667,1.741-1.653,1.741 C236.4,43.678,235.935,42.779,235.935,42.054z"/>
      <path fill="#FFFFFF" stroke="#FFFFFF" stroke-width="0.25" stroke-miterlimit="10" d="M257.078,69.755 c2.118,0.203,3.423,1.016,3.423,2.321c0,1.159-1.189,3.104-5.337,3.104c-0.261,0-0.493-0.088-0.493-0.291 c0-0.262,0.348-0.377,0.754-0.377c0.958,0,2.437-0.726,2.437-1.943c0-0.782-0.348-1.827-2.292-2.116 c-0.406-0.06-0.638-0.146-0.638-0.231c0-0.088,0.087-0.146,0.464-0.437l2.32-1.74c-5.395-0.725-10.559-4.118-10.559-11.516 c0-1.973,0.609-5.396,3.394-7.948c2.088-1.914,4.844-3.075,9.166-3.075c1.798,0,2.872,0.116,4.206,0.29 c1.103,0.145,2.031,0.406,2.901,0.493c0.319,0.029,0.435,0.174,0.435,0.348c0,0.232-0.087,0.58-0.145,1.596 c-0.058,0.957-0.029,2.552-0.087,3.132c-0.029,0.436-0.087,0.667-0.348,0.667c-0.232,0-0.29-0.232-0.29-0.638 c-0.029-0.899-0.406-1.915-1.131-2.668c-0.958-1.016-3.22-1.799-5.889-1.799c-2.523,0-4.177,0.638-5.453,1.799 c-2.118,1.943-2.668,4.699-2.668,7.513c0,6.902,5.25,10.326,9.137,10.326c2.582,0,4.148-0.291,5.308-1.625 c0.493-0.551,0.87-1.393,0.986-1.914c0.087-0.465,0.145-0.579,0.377-0.579c0.203,0,0.261,0.202,0.261,0.435 c0,0.35-0.348,2.872-0.638,3.858c-0.145,0.491-0.261,0.638-0.754,0.841c-1.16,0.464-3.365,0.667-5.221,0.667 c-0.551,0-1.073-0.028-1.537-0.06L257.078,69.755z"/>
      <path fill="#FFFFFF" stroke="#FFFFFF" stroke-width="0.25" stroke-miterlimit="10" d="M275.259,54.324 c0-4.409,0-5.221-0.058-6.149c-0.058-0.986-0.348-1.479-0.986-1.625c-0.319-0.087-0.696-0.116-1.044-0.116 c-0.29,0-0.464-0.058-0.464-0.29c0-0.174,0.232-0.232,0.696-0.232c1.102,0,2.93,0.087,3.771,0.087 c0.726,0,2.438-0.087,3.539-0.087c0.377,0,0.609,0.058,0.609,0.232c0,0.232-0.175,0.29-0.464,0.29c-0.29,0-0.522,0.029-0.87,0.087 c-0.783,0.145-1.015,0.638-1.073,1.653c-0.059,0.928-0.059,1.74-0.059,6.149v5.105c0,2.813,0,5.104,0.117,6.353 c0.086,0.782,0.289,1.306,1.16,1.421c0.405,0.059,1.043,0.117,1.479,0.117c0.318,0,0.464,0.086,0.464,0.23 c0,0.203-0.231,0.291-0.552,0.291c-1.913,0-3.741-0.088-4.524-0.088c-0.667,0-2.495,0.088-3.655,0.088 c-0.377,0-0.58-0.088-0.58-0.291c0-0.146,0.116-0.23,0.464-0.23c0.435,0,0.783-0.059,1.044-0.117 c0.58-0.115,0.754-0.607,0.841-1.449c0.145-1.219,0.145-3.51,0.145-6.324V54.324L275.259,54.324z M275.433,42.054 c0-0.725,0.464-1.683,1.625-1.683c0.928,0,1.653,0.609,1.653,1.566c0,0.958-0.667,1.741-1.653,1.741 C275.897,43.678,275.433,42.779,275.433,42.054z"/>
      <path fill="#FFFFFF" stroke="#FFFFFF" stroke-width="0.25" stroke-miterlimit="10" d="M299.3,54.324c0-4.409,0-5.221-0.059-6.149 c-0.059-0.986-0.29-1.451-1.247-1.653c-0.231-0.058-0.726-0.087-1.132-0.087c-0.318,0-0.492-0.058-0.492-0.261 c0-0.203,0.203-0.261,0.638-0.261c1.538,0,3.365,0.087,4.235,0.087c0.695,0,2.523-0.087,3.566-0.087 c0.437,0,0.64,0.058,0.64,0.261c0,0.203-0.175,0.261-0.466,0.261c-0.317,0-0.492,0.029-0.84,0.087 c-0.783,0.145-1.017,0.638-1.074,1.653c-0.057,0.928-0.057,1.74-0.057,6.149v4.061c0,4.206,0.84,5.976,2.262,7.136 c1.306,1.074,2.64,1.189,3.625,1.189c1.276,0,2.844-0.406,4.004-1.566c1.596-1.596,1.683-4.205,1.683-7.193v-3.626 c0-4.409,0-5.221-0.058-6.149c-0.059-0.986-0.291-1.451-1.248-1.653c-0.231-0.058-0.725-0.087-1.045-0.087 c-0.318,0-0.492-0.058-0.492-0.261c0-0.203,0.203-0.261,0.609-0.261c1.479,0,3.307,0.087,3.336,0.087 c0.348,0,2.176-0.087,3.307-0.087c0.406,0,0.609,0.058,0.609,0.261c0,0.203-0.174,0.261-0.522,0.261 c-0.319,0-0.493,0.029-0.841,0.087c-0.783,0.145-1.016,0.638-1.073,1.653c-0.06,0.928-0.06,1.74-0.06,6.149v3.104 c0,3.22-0.317,6.643-2.756,8.732c-2.059,1.769-4.146,2.088-6.033,2.088c-1.536,0-4.321-0.087-6.438-2.002 c-1.479-1.334-2.581-3.479-2.581-7.688V54.324z M304.317,42.315c0-0.551,0.406-1.334,1.334-1.334c0.755,0,1.363,0.464,1.363,1.247 c0,0.813-0.552,1.451-1.393,1.451C304.694,43.678,304.317,42.924,304.317,42.315z M310.438,42.315c0-0.58,0.404-1.363,1.334-1.363 c0.754,0,1.363,0.464,1.363,1.276c0,0.813-0.552,1.451-1.394,1.451C310.815,43.678,310.438,42.924,310.438,42.315z"/>
      <path fill="#FFFFFF" stroke="#FFFFFF" stroke-width="0.25" stroke-miterlimit="10" d="M328.62,63.896 c0.059,2.264,0.436,3.018,1.016,3.221c0.492,0.174,1.045,0.203,1.508,0.203c0.319,0,0.494,0.058,0.494,0.23 c0,0.231-0.263,0.291-0.668,0.291c-1.886,0-3.045-0.088-3.598-0.088c-0.261,0-1.624,0.088-3.132,0.088 c-0.378,0-0.64-0.029-0.64-0.291c0-0.174,0.174-0.23,0.465-0.23c0.377,0,0.898-0.029,1.306-0.146 c0.754-0.23,0.87-1.072,0.899-3.597l0.261-17.085c0-0.58,0.087-0.986,0.377-0.986c0.319,0,0.58,0.377,1.073,0.899 c0.349,0.377,4.758,5.018,8.992,9.224c1.973,1.974,5.889,6.148,6.381,6.614h0.146l-0.29-13.025c-0.027-1.769-0.29-2.32-0.986-2.61 c-0.435-0.174-1.131-0.174-1.537-0.174c-0.348,0-0.463-0.087-0.463-0.261c0-0.232,0.318-0.261,0.754-0.261 c1.509,0,2.9,0.087,3.51,0.087c0.318,0,1.422-0.087,2.843-0.087c0.377,0,0.667,0.029,0.667,0.261c0,0.174-0.174,0.261-0.521,0.261 c-0.289,0-0.521,0-0.869,0.087c-0.813,0.232-1.045,0.841-1.073,2.465l-0.319,18.304c0,0.638-0.115,0.897-0.377,0.897 c-0.318,0-0.667-0.317-0.986-0.637c-1.826-1.74-5.539-5.541-8.558-8.528c-3.161-3.133-6.381-6.672-6.903-7.223h-0.086 L328.62,63.896z"/>
      <path fill="#FFFFFF" stroke="#FFFFFF" stroke-width="0.25" stroke-miterlimit="10" d="M356.197,54.324 c0-4.409,0-5.221-0.058-6.149c-0.059-0.986-0.35-1.479-0.986-1.625c-0.319-0.087-0.696-0.116-1.045-0.116 c-0.289,0-0.465-0.058-0.465-0.29c0-0.174,0.232-0.232,0.696-0.232c1.103,0,2.931,0.087,3.771,0.087 c0.726,0,2.438-0.087,3.539-0.087c0.377,0,0.608,0.058,0.608,0.232c0,0.232-0.174,0.29-0.464,0.29s-0.521,0.029-0.87,0.087 c-0.782,0.145-1.016,0.638-1.073,1.653c-0.058,0.928-0.058,1.74-0.058,6.149v5.105c0,2.813,0,5.104,0.115,6.353 c0.087,0.782,0.29,1.306,1.159,1.421c0.406,0.059,1.046,0.117,1.479,0.117c0.319,0,0.466,0.086,0.466,0.23 c0,0.203-0.232,0.291-0.553,0.291c-1.914,0-3.742-0.088-4.525-0.088c-0.666,0-2.494,0.088-3.653,0.088 c-0.377,0-0.58-0.088-0.58-0.291c0-0.146,0.116-0.23,0.464-0.23c0.436,0,0.783-0.059,1.044-0.117 c0.58-0.115,0.755-0.607,0.843-1.449c0.145-1.219,0.145-3.51,0.145-6.324L356.197,54.324L356.197,54.324z M356.372,42.054 c0-0.725,0.464-1.683,1.624-1.683c0.928,0,1.653,0.609,1.653,1.566c0,0.958-0.668,1.741-1.653,1.741 C356.836,43.678,356.372,42.779,356.372,42.054z"/>
      <path fill="#FFFFFF" stroke="#FFFFFF" stroke-width="0.25" stroke-miterlimit="10" d="M368.377,48.754 c-0.668-1.595-1.16-1.915-2.205-2.205c-0.435-0.116-0.899-0.116-1.131-0.116c-0.262,0-0.349-0.087-0.349-0.261 c0-0.232,0.318-0.261,0.755-0.261c1.536,0,3.19,0.087,4.206,0.087c0.725,0,2.117-0.087,3.566-0.087 c0.348,0,0.668,0.058,0.668,0.261c0,0.203-0.175,0.261-0.436,0.261c-0.465,0-0.898,0.029-1.133,0.203 c-0.202,0.145-0.289,0.348-0.289,0.609c0,0.377,0.262,1.189,0.667,2.233l4.989,13.169h0.115c1.247-3.19,5.02-12.531,5.715-14.445 c0.146-0.377,0.262-0.812,0.262-1.073c0-0.232-0.116-0.464-0.377-0.551c-0.35-0.116-0.783-0.145-1.16-0.145 c-0.262,0-0.493-0.029-0.493-0.232c0-0.232,0.261-0.29,0.812-0.29c1.451,0,2.67,0.087,3.047,0.087 c0.492,0,1.855-0.087,2.727-0.087c0.378,0,0.609,0.058,0.609,0.261c0,0.203-0.174,0.261-0.465,0.261c-0.289,0-0.898,0-1.422,0.348 c-0.377,0.261-0.812,0.754-1.595,2.611c-1.132,2.727-1.915,4.293-3.481,7.861c-1.855,4.235-3.22,7.396-3.856,8.848 c-0.754,1.682-0.929,2.146-1.334,2.146c-0.378,0-0.552-0.405-1.103-1.771L368.377,48.754z"/>
      <path fill="#FFFFFF" stroke="#FFFFFF" stroke-width="0.25" stroke-miterlimit="10" d="M393.781,54.324 c0-4.409,0-5.221-0.058-6.149c-0.059-0.986-0.291-1.451-1.248-1.653c-0.231-0.058-0.726-0.087-1.131-0.087 c-0.318,0-0.494-0.058-0.494-0.261c0-0.203,0.203-0.261,0.64-0.261c0.782,0,1.624,0.029,2.35,0.029 c0.755,0.029,1.421,0.058,1.827,0.058c0.93,0,6.7,0,7.252-0.029c0.551-0.058,1.016-0.116,1.247-0.174 c0.146-0.029,0.319-0.116,0.464-0.116c0.146,0,0.176,0.116,0.176,0.261c0,0.203-0.146,0.551-0.232,1.886 c-0.029,0.29-0.088,1.566-0.146,1.915c-0.027,0.145-0.087,0.319-0.289,0.319c-0.203,0-0.262-0.145-0.262-0.406 c0-0.203-0.029-0.696-0.174-1.044c-0.203-0.522-0.493-0.87-1.943-1.044c-0.492-0.058-3.539-0.116-4.119-0.116 c-0.146,0-0.203,0.087-0.203,0.29v7.338c0,0.203,0.029,0.319,0.203,0.319c0.639,0,3.975,0,4.642-0.058 c0.696-0.058,1.132-0.145,1.393-0.435c0.203-0.232,0.319-0.377,0.464-0.377c0.116,0,0.203,0.058,0.203,0.232 c0,0.174-0.115,0.638-0.23,2.118c-0.029,0.58-0.116,1.74-0.116,1.943c0,0.231,0,0.551-0.263,0.551c-0.201,0-0.26-0.116-0.26-0.261 c-0.029-0.29-0.029-0.667-0.117-1.044c-0.145-0.58-0.551-1.016-1.623-1.131c-0.551-0.059-3.424-0.088-4.119-0.088 c-0.145,0-0.174,0.117-0.174,0.291v2.292c0,0.985-0.029,3.654,0,4.496c0.058,2.002,0.521,2.437,3.479,2.437 c0.755,0,1.974,0,2.728-0.349s1.103-0.957,1.306-2.146c0.058-0.319,0.116-0.437,0.319-0.437c0.23,0,0.23,0.232,0.23,0.522 c0,0.667-0.23,2.64-0.377,3.22c-0.203,0.754-0.464,0.754-1.566,0.754c-2.174,0-3.771-0.058-5.018-0.086 c-1.248-0.06-2.146-0.088-3.018-0.088c-0.318,0-0.957,0-1.653,0.028c-0.667,0-1.421,0.06-2.001,0.06 c-0.377,0-0.58-0.088-0.58-0.291c0-0.146,0.116-0.23,0.464-0.23c0.437,0,0.783-0.059,1.044-0.117 c0.58-0.115,0.727-0.754,0.842-1.596c0.146-1.217,0.146-3.51,0.146-6.178v-5.108H393.781z"/>
      <path fill="#FFFFFF" stroke="#FFFFFF" stroke-width="0.25" stroke-miterlimit="10" d="M413.851,54.324 c0-4.409,0-5.221-0.059-6.149c-0.059-0.986-0.29-1.451-1.247-1.653c-0.231-0.058-0.726-0.087-1.132-0.087 c-0.318,0-0.493-0.058-0.493-0.261c0-0.203,0.203-0.261,0.64-0.261c1.537,0,3.363,0.087,3.974,0.087 c0.985,0,3.19-0.087,4.09-0.087c1.828,0,3.771,0.174,5.338,1.248c0.812,0.551,1.972,2.03,1.972,3.974 c0,2.146-0.897,4.119-3.828,6.498c2.582,3.249,4.584,5.831,6.295,7.628c1.625,1.684,2.813,1.887,3.248,1.973 c0.319,0.06,0.58,0.089,0.813,0.089c0.231,0,0.348,0.086,0.348,0.231c0,0.23-0.202,0.289-0.551,0.289h-2.756 c-1.624,0-2.351-0.145-3.104-0.551c-1.248-0.668-2.35-2.031-3.975-4.264c-1.16-1.596-2.494-3.568-2.871-4.003 c-0.146-0.174-0.318-0.203-0.521-0.203l-2.523-0.059c-0.146,0-0.232,0.059-0.232,0.232v0.405c0,2.699,0,4.99,0.146,6.209 c0.087,0.841,0.262,1.479,1.131,1.595c0.436,0.06,1.073,0.117,1.422,0.117c0.231,0,0.348,0.086,0.348,0.231 c0,0.203-0.202,0.289-0.579,0.289c-1.683,0-3.829-0.086-4.265-0.086c-0.552,0-2.379,0.086-3.539,0.086 c-0.377,0-0.58-0.086-0.58-0.289c0-0.146,0.117-0.231,0.465-0.231c0.436,0,0.783-0.06,1.044-0.117 c0.579-0.114,0.726-0.754,0.842-1.595c0.146-1.219,0.146-3.51,0.146-6.18v-5.106H413.851z M417.272,56.615 c0,0.318,0.059,0.436,0.262,0.521c0.607,0.203,1.479,0.291,2.204,0.291c1.159,0,1.536-0.117,2.06-0.494 c0.87-0.638,1.711-1.972,1.711-4.351c0-4.119-2.727-5.309-4.438-5.309c-0.727,0-1.247,0.029-1.537,0.116 c-0.203,0.058-0.262,0.174-0.262,0.406V56.615L417.272,56.615z"/>
      <path fill="#FFFFFF" stroke="#FFFFFF" stroke-width="0.25" stroke-miterlimit="10" d="M435.453,67.493 c-0.465-0.203-0.552-0.35-0.552-0.986c0-1.596,0.115-3.336,0.146-3.801c0.029-0.436,0.116-0.754,0.349-0.754 c0.262,0,0.289,0.262,0.289,0.494c0,0.377,0.116,0.984,0.263,1.479c0.638,2.146,2.35,2.93,4.146,2.93 c2.61,0,3.888-1.77,3.888-3.307c0-1.422-0.436-2.756-2.844-4.641l-1.334-1.044c-3.189-2.494-4.293-4.525-4.293-6.875 c0-3.191,2.669-5.482,6.7-5.482c1.886,0,3.104,0.29,3.858,0.493c0.261,0.058,0.405,0.145,0.405,0.348 c0,0.377-0.115,1.218-0.115,3.481c0,0.638-0.087,0.87-0.319,0.87c-0.203,0-0.29-0.174-0.29-0.522c0-0.261-0.145-1.16-0.754-1.915 c-0.437-0.551-1.276-1.421-3.162-1.421c-2.146,0-3.451,1.248-3.451,2.988c0,1.334,0.667,2.35,3.074,4.177l0.813,0.609 c3.51,2.64,4.757,4.641,4.757,7.396c0,1.682-0.639,3.685-2.728,5.047c-1.45,0.928-3.074,1.189-4.611,1.189 C438.006,68.247,436.7,68.044,435.453,67.493z"/>
      <path fill="#FFFFFF" stroke="#FFFFFF" stroke-width="0.25" stroke-miterlimit="10" d="M455.666,54.324 c0-4.409,0-5.221-0.058-6.149c-0.059-0.986-0.35-1.479-0.986-1.625c-0.319-0.087-0.696-0.116-1.044-0.116 c-0.29,0-0.465-0.058-0.465-0.29c0-0.174,0.231-0.232,0.695-0.232c1.104,0,2.931,0.087,3.771,0.087 c0.725,0,2.437-0.087,3.538-0.087c0.378,0,0.609,0.058,0.609,0.232c0,0.232-0.175,0.29-0.465,0.29s-0.521,0.029-0.869,0.087 c-0.783,0.145-1.017,0.638-1.073,1.653c-0.059,0.928-0.059,1.74-0.059,6.149v5.105c0,2.813,0,5.104,0.115,6.353 c0.087,0.782,0.29,1.306,1.16,1.421c0.406,0.059,1.045,0.117,1.479,0.117c0.319,0,0.466,0.086,0.466,0.23 c0,0.203-0.232,0.291-0.553,0.291c-1.914,0-3.741-0.088-4.524-0.088c-0.667,0-2.494,0.088-3.654,0.088 c-0.377,0-0.58-0.088-0.58-0.291c0-0.146,0.116-0.23,0.464-0.23c0.437,0,0.783-0.059,1.044-0.117 c0.58-0.115,0.755-0.607,0.843-1.449c0.145-1.219,0.145-3.51,0.145-6.324L455.666,54.324L455.666,54.324z M455.841,42.054 c0-0.725,0.464-1.683,1.624-1.683c0.929,0,1.653,0.609,1.653,1.566c0,0.958-0.667,1.741-1.653,1.741 C456.305,43.678,455.841,42.779,455.841,42.054z"/>
      <path fill="#FFFFFF" stroke="#FFFFFF" stroke-width="0.25" stroke-miterlimit="10" d="M474.372,47.536l-4.322,0.116 c-1.683,0.058-2.379,0.203-2.813,0.841c-0.29,0.435-0.437,0.783-0.493,1.015c-0.058,0.232-0.146,0.348-0.319,0.348 c-0.203,0-0.261-0.145-0.261-0.464c0-0.464,0.551-3.104,0.609-3.336c0.087-0.377,0.174-0.551,0.348-0.551 c0.232,0,0.522,0.29,1.247,0.348c0.842,0.087,1.943,0.145,2.901,0.145h11.485c0.929,0,1.566-0.087,2.002-0.145 c0.436-0.087,0.667-0.145,0.783-0.145c0.202,0,0.231,0.174,0.231,0.609c0,0.609-0.088,2.61-0.088,3.365 c-0.028,0.29-0.087,0.464-0.261,0.464c-0.231,0-0.29-0.145-0.318-0.58l-0.029-0.319c-0.059-0.754-0.841-1.566-3.423-1.625 l-3.654-0.087v11.894c0,2.668,0,4.961,0.146,6.207c0.087,0.813,0.262,1.45,1.132,1.565c0.404,0.06,1.044,0.116,1.479,0.116 c0.318,0,0.464,0.087,0.464,0.232c0,0.202-0.231,0.289-0.552,0.289c-1.914,0-3.741-0.087-4.554-0.087 c-0.667,0-2.494,0.087-3.655,0.087c-0.377,0-0.58-0.087-0.58-0.289c0-0.146,0.116-0.232,0.465-0.232 c0.436,0,0.783-0.059,1.044-0.116c0.58-0.115,0.754-0.754,0.842-1.595c0.146-1.219,0.146-3.51,0.146-6.18L474.372,47.536 L474.372,47.536z"/>
      <path fill="#FFFFFF" stroke="#FFFFFF" stroke-width="0.25" stroke-miterlimit="10" d="M492.844,54.324 c0-4.409,0-5.221-0.058-6.149c-0.059-0.986-0.29-1.451-1.247-1.653c-0.232-0.058-0.726-0.087-1.132-0.087 c-0.318,0-0.493-0.058-0.493-0.261c0-0.203,0.203-0.261,0.639-0.261c0.783,0,1.624,0.029,2.351,0.029 c0.754,0.029,1.421,0.058,1.827,0.058c0.929,0,6.699,0,7.252-0.029c0.551-0.058,1.015-0.116,1.247-0.174 c0.146-0.029,0.318-0.116,0.464-0.116s0.175,0.116,0.175,0.261c0,0.203-0.146,0.551-0.232,1.886 c-0.028,0.29-0.087,1.566-0.146,1.915c-0.028,0.145-0.087,0.319-0.29,0.319s-0.261-0.145-0.261-0.406 c0-0.203-0.029-0.696-0.175-1.044c-0.202-0.522-0.492-0.87-1.942-1.044c-0.493-0.058-3.539-0.116-4.119-0.116 c-0.146,0-0.203,0.087-0.203,0.29v7.338c0,0.203,0.029,0.319,0.203,0.319c0.638,0,3.974,0,4.641-0.058 c0.696-0.058,1.132-0.145,1.394-0.435c0.203-0.232,0.318-0.377,0.464-0.377c0.116,0,0.203,0.058,0.203,0.232 c0,0.174-0.116,0.638-0.231,2.118c-0.028,0.58-0.116,1.74-0.116,1.943c0,0.231,0,0.551-0.262,0.551 c-0.202,0-0.261-0.116-0.261-0.261c-0.029-0.29-0.029-0.667-0.116-1.044c-0.145-0.58-0.551-1.016-1.624-1.131 c-0.551-0.059-3.423-0.088-4.119-0.088c-0.145,0-0.174,0.117-0.174,0.291v2.292c0,0.985-0.029,3.654,0,4.496 c0.059,2.002,0.522,2.437,3.48,2.437c0.755,0,1.973,0,2.727-0.349c0.755-0.349,1.104-0.957,1.306-2.146 c0.059-0.319,0.116-0.437,0.319-0.437c0.231,0,0.231,0.232,0.231,0.522c0,0.667-0.231,2.64-0.377,3.22 c-0.203,0.754-0.465,0.754-1.566,0.754c-2.175,0-3.771-0.058-5.018-0.086c-1.248-0.06-2.146-0.088-3.019-0.088 c-0.318,0-0.957,0-1.653,0.028c-0.667,0-1.421,0.06-2.001,0.06c-0.377,0-0.58-0.088-0.58-0.291c0-0.146,0.116-0.23,0.465-0.23 c0.436,0,0.782-0.059,1.044-0.117c0.58-0.115,0.726-0.754,0.842-1.596c0.145-1.217,0.145-3.51,0.145-6.178v-5.108H492.844z"/>
      <path fill="#FFFFFF" stroke="#FFFFFF" stroke-width="0.25" stroke-miterlimit="10" d="M511.316,67.493 c-0.466-0.203-0.553-0.35-0.553-0.986c0-1.596,0.116-3.336,0.146-3.801c0.029-0.436,0.116-0.754,0.348-0.754 c0.263,0,0.29,0.262,0.29,0.494c0,0.377,0.116,0.984,0.262,1.479c0.639,2.146,2.351,2.93,4.147,2.93 c2.61,0,3.887-1.77,3.887-3.307c0-1.422-0.435-2.756-2.843-4.641l-1.334-1.044c-3.19-2.494-4.293-4.525-4.293-6.875 c0-3.191,2.669-5.482,6.7-5.482c1.886,0,3.104,0.29,3.857,0.493c0.262,0.058,0.406,0.145,0.406,0.348 c0,0.377-0.116,1.218-0.116,3.481c0,0.638-0.087,0.87-0.318,0.87c-0.203,0-0.29-0.174-0.29-0.522c0-0.261-0.146-1.16-0.754-1.915 c-0.437-0.551-1.276-1.421-3.162-1.421c-2.146,0-3.451,1.248-3.451,2.988c0,1.334,0.667,2.35,3.074,4.177l0.813,0.609 c3.511,2.64,4.757,4.641,4.757,7.396c0,1.682-0.638,3.685-2.727,5.047c-1.45,0.928-3.074,1.189-4.612,1.189 C513.869,68.247,512.563,68.044,511.316,67.493z"/>
      <path fill="#FFFFFF" stroke="#FFFFFF" stroke-width="0.25" stroke-miterlimit="10" d="M531.529,54.324 c0-4.409,0-5.221-0.059-6.149c-0.058-0.986-0.349-1.479-0.985-1.625c-0.319-0.087-0.696-0.116-1.044-0.116 c-0.29,0-0.466-0.058-0.466-0.29c0-0.174,0.232-0.232,0.696-0.232c1.104,0,2.93,0.087,3.771,0.087 c0.725,0,2.437-0.087,3.538-0.087c0.378,0,0.608,0.058,0.608,0.232c0,0.232-0.174,0.29-0.464,0.29s-0.521,0.029-0.87,0.087 c-0.783,0.145-1.016,0.638-1.073,1.653c-0.058,0.928-0.058,1.74-0.058,6.149v5.105c0,2.813,0,5.104,0.115,6.353 c0.087,0.782,0.29,1.306,1.16,1.421c0.405,0.059,1.045,0.117,1.479,0.117c0.319,0,0.465,0.086,0.465,0.23 c0,0.203-0.231,0.291-0.552,0.291c-1.914,0-3.742-0.088-4.525-0.088c-0.667,0-2.493,0.088-3.653,0.088 c-0.377,0-0.58-0.088-0.58-0.291c0-0.146,0.116-0.23,0.464-0.23c0.436,0,0.783-0.059,1.044-0.117 c0.58-0.115,0.755-0.607,0.842-1.449c0.146-1.219,0.146-3.51,0.146-6.324L531.529,54.324L531.529,54.324z M531.704,42.054 c0-0.725,0.464-1.683,1.624-1.683c0.928,0,1.653,0.609,1.653,1.566c0,0.958-0.667,1.741-1.653,1.741 C532.168,43.678,531.704,42.779,531.704,42.054z"/>
    </g>
  </g>
  <g transform="matrix(1, 0, 0, 1, 0, 1.4210854715202004e-14)">
    <g>
      <path fill="#FFFFFF" d="M69.446,27.957c0,15.329-12.427,27.755-27.756,27.755c-15.332,0-27.757-12.427-27.757-27.755 c0-15.328,12.425-27.756,27.757-27.756C57.02,0.201,69.446,12.629,69.446,27.957"/>
      <path fill="#005497" d="M67.246,27.957c0-14.117-11.439-25.56-25.557-25.56c-14.116,0-25.56,11.443-25.56,25.56 c0,14.116,11.444,25.559,25.56,25.559C55.807,53.515,67.246,42.073,67.246,27.957 M41.689,53.884 c-14.318,0-25.927-11.608-25.927-25.927c0-14.32,11.608-25.927,25.927-25.927c14.32,0,25.928,11.607,25.928,25.927 C67.617,42.275,56.009,53.884,41.689,53.884 M41.691,45.687c-9.794,0.002-17.732-7.938-17.732-17.731 c0-9.79,7.938-17.73,17.732-17.73c9.791,0,17.73,7.94,17.73,17.73C59.421,37.749,51.482,45.687,41.691,45.687 M41.693,9.856 c-9.999,0-18.103,8.106-18.103,18.099c0,9.996,8.104,18.1,18.101,18.098c9.996,0,18.099-8.101,18.099-18.098 C59.791,17.963,51.687,9.856,41.693,9.856"/>
      <path fill="#005497" d="M41.689,12.285l-15.669,15.67l5.466,0.001c0,4.63,3.753,8.382,8.381,8.382 c4.631,0,8.384-3.752,8.384-8.383l-13.121,0.001c0-4.63,3.753-8.381,8.382-8.381c4.631,0,8.384,3.751,8.384,8.38h5.465 L41.689,12.285z"/>
      <path fill="#66C7EB" d="M51.898,27.956c0-4.629-3.753-8.381-8.384-8.381c-4.629,0-8.382,3.752-8.382,8.381l13.121,0.001 c0,4.628-3.753,8.381-8.384,8.382c-4.628,0-8.381-3.754-8.381-8.383h-5.466l15.673,15.67l15.67-15.669L51.898,27.956z"/>
      <path fill="#005497" d="M34.503,47.769l0.139-0.452c0.213,0.054,0.364,0.085,0.454,0.094c0.143,0.01,0.27-0.017,0.382-0.08 c0.074-0.04,0.142-0.109,0.201-0.202c0.037-0.055,0.061-0.098,0.067-0.126l0.557,0.17l-1.041,3.384l-0.682-0.209l0.717-2.333 L34.503,47.769z"/>
      <path fill="#005497" d="M38.439,49.71c0.105-0.15,0.247-0.258,0.428-0.323c-0.16-0.129-0.26-0.264-0.299-0.399 c-0.039-0.14-0.052-0.264-0.04-0.378c0.022-0.257,0.141-0.466,0.351-0.629c0.211-0.161,0.492-0.226,0.846-0.192 c0.354,0.035,0.616,0.152,0.793,0.349c0.173,0.201,0.251,0.427,0.225,0.684c-0.009,0.114-0.047,0.234-0.111,0.361 c-0.062,0.129-0.185,0.233-0.364,0.313c0.165,0.115,0.283,0.256,0.355,0.425c0.072,0.169,0.101,0.352,0.08,0.549 c-0.027,0.296-0.161,0.54-0.402,0.726c-0.241,0.188-0.554,0.263-0.95,0.224c-0.395-0.035-0.683-0.167-0.866-0.397 c-0.183-0.228-0.259-0.49-0.231-0.786C38.272,50.038,38.335,49.863,38.439,49.71 M39.073,50.675 c0.082,0.104,0.2,0.164,0.361,0.178c0.158,0.016,0.287-0.021,0.387-0.106c0.099-0.087,0.155-0.218,0.174-0.392 c0.016-0.179-0.02-0.319-0.1-0.42c-0.083-0.104-0.203-0.164-0.36-0.175c-0.153-0.018-0.281,0.018-0.382,0.104 c-0.1,0.084-0.158,0.215-0.175,0.395C38.962,50.432,38.994,50.569,39.073,50.675 M39.273,49.076 c0.068,0.088,0.175,0.139,0.315,0.152c0.143,0.014,0.253-0.018,0.338-0.09c0.086-0.073,0.134-0.173,0.145-0.303 c0.014-0.138-0.013-0.25-0.083-0.335c-0.068-0.09-0.175-0.136-0.317-0.151c-0.14-0.012-0.251,0.017-0.34,0.087 c-0.084,0.071-0.134,0.176-0.15,0.316C39.171,48.879,39.201,48.986,39.273,49.076"/>
      <path fill="#005497" d="M44.293,48.631c-0.007-0.058-0.035-0.118-0.086-0.181c-0.086-0.102-0.206-0.144-0.355-0.129 c-0.227,0.024-0.372,0.166-0.439,0.428c-0.039,0.146-0.051,0.354-0.042,0.63c0.073-0.113,0.166-0.198,0.274-0.255 c0.107-0.059,0.234-0.097,0.38-0.112c0.313-0.035,0.58,0.048,0.801,0.239c0.223,0.189,0.349,0.451,0.386,0.779 c0.035,0.33-0.034,0.63-0.201,0.901c-0.173,0.271-0.464,0.43-0.874,0.472c-0.445,0.048-0.792-0.105-1.04-0.454 c-0.194-0.272-0.315-0.637-0.365-1.095c-0.027-0.269-0.039-0.488-0.034-0.659c0.01-0.303,0.061-0.563,0.157-0.774 c0.085-0.18,0.199-0.33,0.353-0.45c0.151-0.121,0.338-0.193,0.567-0.216c0.326-0.037,0.597,0.021,0.807,0.168 c0.214,0.147,0.347,0.358,0.401,0.635L44.293,48.631z M43.68,50.701c0.113,0.107,0.25,0.153,0.406,0.138 c0.156-0.015,0.268-0.087,0.345-0.212c0.078-0.125,0.104-0.28,0.085-0.466c-0.02-0.203-0.088-0.356-0.2-0.455 c-0.113-0.099-0.239-0.14-0.385-0.125c-0.119,0.013-0.22,0.059-0.301,0.139c-0.126,0.122-0.176,0.298-0.15,0.532 C43.497,50.442,43.566,50.592,43.68,50.701"/>
      <path fill="#005497" d="M47.866,49.482c0.046,0.139,0.102,0.243,0.172,0.316c0.133,0.137,0.305,0.171,0.518,0.105 c0.131-0.041,0.229-0.121,0.298-0.241c0.068-0.122,0.076-0.264,0.021-0.434c-0.071-0.22-0.207-0.339-0.41-0.356 c-0.115-0.01-0.281,0.02-0.505,0.089l-0.149-0.476c0.215-0.071,0.357-0.14,0.429-0.205c0.13-0.112,0.16-0.267,0.096-0.465 c-0.042-0.128-0.112-0.222-0.214-0.278c-0.099-0.057-0.217-0.063-0.353-0.02c-0.158,0.049-0.256,0.133-0.298,0.258 c-0.043,0.122-0.035,0.268,0.02,0.432l-0.619,0.196c-0.046-0.169-0.069-0.337-0.065-0.503c0.013-0.15,0.06-0.298,0.139-0.447 c0.061-0.108,0.146-0.201,0.251-0.28c0.106-0.081,0.247-0.147,0.419-0.201c0.322-0.104,0.61-0.104,0.859,0.004 c0.251,0.101,0.421,0.294,0.512,0.575c0.061,0.198,0.058,0.382-0.018,0.558c-0.049,0.108-0.107,0.192-0.178,0.248 c0.061-0.018,0.166,0.007,0.31,0.073c0.218,0.104,0.372,0.289,0.459,0.562c0.09,0.286,0.072,0.568-0.056,0.847 c-0.132,0.28-0.387,0.479-0.777,0.604c-0.477,0.152-0.857,0.1-1.141-0.151c-0.154-0.134-0.276-0.334-0.371-0.599L47.866,49.482z "/>
      <path fill="#005497" d="M21.135,33.729c-0.333-0.25-0.795-0.181-1.042,0.147c-0.249,0.33-0.182,0.797,0.148,1.042 c0.327,0.248,0.795,0.182,1.042-0.146C21.534,34.438,21.467,33.971,21.135,33.729"/>
      <path fill="#005497" d="M63.173,33.729c-0.334-0.25-0.795-0.181-1.042,0.147c-0.249,0.33-0.182,0.797,0.147,1.042 c0.328,0.248,0.796,0.182,1.042-0.146C63.571,34.438,63.505,33.971,63.173,33.729"/>
      <path fill="#005497" d="M18.194,28.827c-0.007-0.173,0.001-0.329,0.026-0.472c0.023-0.142,0.069-0.266,0.134-0.369 c0.064-0.104,0.152-0.187,0.264-0.246c0.111-0.061,0.252-0.095,0.42-0.102c0.181-0.008,0.336,0.027,0.459,0.104 c0.125,0.077,0.229,0.195,0.314,0.353c0.054-0.224,0.16-0.395,0.314-0.511c0.154-0.116,0.346-0.179,0.571-0.188 c0.181-0.007,0.339,0.021,0.476,0.086c0.134,0.064,0.248,0.155,0.337,0.271c0.088,0.115,0.156,0.249,0.204,0.4 c0.047,0.152,0.074,0.308,0.081,0.469l0.074,1.746l-3.602,0.154L18.194,28.827z M19.657,28.864 c-0.006-0.141-0.044-0.256-0.116-0.343c-0.072-0.088-0.183-0.129-0.334-0.123c-0.084,0.003-0.152,0.021-0.205,0.054 s-0.092,0.075-0.12,0.126c-0.029,0.052-0.046,0.111-0.056,0.177s-0.012,0.134-0.01,0.205l0.033,0.742l0.843-0.037L19.657,28.864 z M21.184,28.754c-0.003-0.078-0.014-0.152-0.033-0.221c-0.019-0.07-0.046-0.131-0.084-0.184 c-0.037-0.051-0.087-0.093-0.149-0.123c-0.062-0.029-0.14-0.042-0.233-0.038c-0.185,0.008-0.315,0.066-0.39,0.173 c-0.075,0.108-0.107,0.247-0.101,0.419l0.038,0.862l0.988-0.041L21.184,28.754z"/>
      <path fill="#005497" d="M19.313,25.719c-0.213-0.12-0.39-0.27-0.532-0.449c-0.142-0.18-0.242-0.387-0.299-0.622 c-0.058-0.234-0.062-0.487-0.014-0.759c0.05-0.275,0.142-0.511,0.277-0.709c0.134-0.198,0.3-0.357,0.495-0.475 c0.197-0.12,0.415-0.198,0.656-0.236c0.241-0.039,0.495-0.035,0.759,0.013c0.258,0.046,0.493,0.129,0.702,0.249 c0.21,0.119,0.384,0.269,0.523,0.448c0.139,0.178,0.236,0.383,0.292,0.617c0.056,0.232,0.059,0.486,0.01,0.761 c-0.049,0.271-0.139,0.508-0.273,0.708c-0.132,0.2-0.297,0.36-0.489,0.479c-0.191,0.12-0.407,0.198-0.645,0.238 c-0.24,0.04-0.487,0.036-0.746-0.011C19.765,25.924,19.525,25.84,19.313,25.719 M20.614,25.217 c0.148-0.01,0.285-0.042,0.41-0.098c0.127-0.056,0.235-0.14,0.324-0.25c0.09-0.11,0.151-0.253,0.183-0.429 c0.031-0.176,0.024-0.332-0.021-0.465c-0.046-0.136-0.12-0.251-0.218-0.348c-0.099-0.096-0.217-0.174-0.351-0.234 c-0.135-0.06-0.276-0.103-0.426-0.13c-0.155-0.028-0.309-0.038-0.462-0.029c-0.152,0.009-0.291,0.042-0.42,0.096 c-0.127,0.056-0.236,0.139-0.326,0.249c-0.091,0.111-0.15,0.253-0.182,0.43c-0.032,0.176-0.024,0.331,0.021,0.466 c0.046,0.135,0.119,0.25,0.221,0.347c0.1,0.096,0.22,0.175,0.359,0.237c0.141,0.061,0.288,0.104,0.443,0.132 C20.319,25.218,20.467,25.227,20.614,25.217"/>
      <path fill="#005497" d="M18.904,18.911c0.062,0.016,0.12,0.016,0.172,0.002c0.052-0.014,0.1-0.039,0.142-0.073 c0.044-0.034,0.083-0.073,0.114-0.119c0.033-0.045,0.059-0.09,0.079-0.137c0.058-0.139,0.082-0.263,0.069-0.371 c-0.013-0.108-0.067-0.198-0.164-0.272l0.126-0.292c0.219,0.13,0.348,0.289,0.391,0.477c0.043,0.188,0.015,0.399-0.085,0.63 c-0.094,0.223-0.226,0.373-0.391,0.45c-0.167,0.078-0.361,0.08-0.583,0.007L18.904,18.911z M21.053,21.17 c-0.245-0.104-0.459-0.24-0.64-0.405c-0.182-0.165-0.322-0.351-0.421-0.558c-0.098-0.207-0.15-0.429-0.154-0.668 s0.049-0.487,0.158-0.744c0.074-0.171,0.169-0.324,0.288-0.463c0.12-0.137,0.255-0.248,0.41-0.333 c0.153-0.084,0.32-0.139,0.503-0.162c0.181-0.023,0.37-0.004,0.567,0.059l-0.297,0.696c-0.204-0.036-0.379-0.011-0.524,0.073 c-0.146,0.084-0.256,0.214-0.332,0.391c-0.07,0.164-0.098,0.316-0.083,0.458c0.014,0.141,0.06,0.271,0.137,0.387 c0.077,0.117,0.175,0.221,0.298,0.311c0.122,0.091,0.256,0.168,0.401,0.229c0.14,0.06,0.282,0.101,0.428,0.125 c0.146,0.023,0.287,0.022,0.421-0.004c0.137-0.027,0.261-0.083,0.373-0.17c0.111-0.088,0.203-0.214,0.273-0.377 c0.102-0.241,0.121-0.453,0.054-0.638c-0.065-0.184-0.211-0.335-0.433-0.456l-0.314,0.733l-0.538-0.229l0.594-1.392l1.788,0.763 l-0.196,0.463l-0.409-0.086c0.111,0.201,0.167,0.395,0.169,0.582c0,0.186-0.034,0.361-0.103,0.521 c-0.109,0.257-0.252,0.466-0.428,0.63c-0.175,0.163-0.371,0.28-0.584,0.353c-0.214,0.074-0.443,0.103-0.684,0.087 C21.532,21.33,21.292,21.271,21.053,21.17"/>
    </g>
    <path fill="#005497" d="M22.864,14l3.713,1.019l-0.483,0.667l-0.81-0.249l-0.79,1.093l0.486,0.699l-0.467,0.647l-2.125-3.217 L22.864,14z M24.685,15.259l-1.34-0.407l-0.005,0.008l0.797,1.156L24.685,15.259z"/>
    <polygon fill="#005497" points="26.471,11.054 25.162,12.265 24.71,11.776 26.792,9.847 27.217,10.307 27.37,13.317 &#10;&#9;&#9;&#9;&#9;28.825,11.969 29.278,12.459 27.047,14.524 26.623,14.064 &#9;&#9;&#9;"/>
    <path fill="#005497" d="M27.578,8.1l0.563-0.385l0.33,0.483l-0.563,0.385L27.578,8.1z M28.075,8.922l0.653-0.448l2.039,2.974 l-0.654,0.448L28.075,8.922z"/>
    <g>
      <path fill="#005497" d="M32.843,7.338c-0.076-0.049-0.157-0.084-0.245-0.106s-0.18-0.028-0.274-0.02 c-0.095,0.009-0.186,0.035-0.274,0.076c-0.163,0.076-0.283,0.172-0.369,0.286c-0.083,0.116-0.134,0.243-0.156,0.381 c-0.021,0.138-0.016,0.282,0.016,0.43c0.031,0.149,0.078,0.296,0.146,0.438c0.064,0.138,0.143,0.263,0.235,0.378 c0.093,0.114,0.199,0.207,0.316,0.278c0.12,0.071,0.25,0.111,0.392,0.121c0.142,0.01,0.293-0.023,0.455-0.098 c0.22-0.103,0.36-0.25,0.42-0.443c0.062-0.191,0.054-0.404-0.021-0.636l0.695-0.326c0.077,0.212,0.116,0.418,0.117,0.618 c0,0.199-0.036,0.384-0.105,0.557C34.121,9.444,34.018,9.6,33.88,9.74c-0.136,0.14-0.303,0.258-0.499,0.354l-0.043,0.22 l0.01-0.004c0.029-0.033,0.078-0.065,0.145-0.096c0.052-0.024,0.106-0.042,0.163-0.054c0.055-0.012,0.109-0.014,0.162-0.006 c0.051,0.007,0.099,0.026,0.143,0.056c0.042,0.03,0.077,0.072,0.104,0.127c0.041,0.088,0.061,0.169,0.058,0.243 c-0.003,0.073-0.021,0.139-0.055,0.198c-0.034,0.059-0.081,0.11-0.137,0.153c-0.058,0.044-0.121,0.082-0.188,0.113 c-0.072,0.035-0.136,0.062-0.19,0.082c-0.054,0.019-0.104,0.033-0.149,0.043s-0.09,0.019-0.133,0.024 c-0.044,0.005-0.091,0.011-0.141,0.016l-0.007-0.265c0.059-0.001,0.124-0.009,0.196-0.022c0.071-0.013,0.147-0.038,0.228-0.075 c0.054-0.026,0.093-0.059,0.115-0.099c0.022-0.041,0.021-0.088-0.004-0.142c-0.027-0.059-0.064-0.089-0.108-0.092 c-0.045-0.003-0.093,0.007-0.145,0.031c-0.067,0.032-0.123,0.071-0.168,0.117L33.087,10.6l0.072-0.418 c-0.233,0.083-0.459,0.117-0.678,0.103s-0.423-0.068-0.613-0.162c-0.191-0.092-0.362-0.222-0.516-0.386 c-0.153-0.164-0.281-0.356-0.383-0.576c-0.114-0.244-0.184-0.487-0.207-0.73c-0.025-0.243-0.006-0.475,0.058-0.695 c0.065-0.219,0.177-0.42,0.335-0.602c0.159-0.183,0.363-0.332,0.613-0.449c0.18-0.083,0.361-0.137,0.546-0.161 c0.184-0.023,0.362-0.015,0.536,0.025c0.172,0.04,0.333,0.114,0.485,0.221c0.151,0.108,0.281,0.251,0.39,0.43l-0.694,0.326 C32.98,7.45,32.918,7.387,32.843,7.338"/>
    </g>
    <path fill="#005497" d="M34.603,4.671l0.656-0.187l0.162,0.563l-0.656,0.188L34.603,4.671z M34.814,5.609l0.763-0.219 l0.992,3.467l-0.763,0.218L34.814,5.609z"/>
    <g>
      <path fill="#005497" d="M42.46,7.912c-0.268,0.242-0.643,0.366-1.124,0.374c-0.49,0.008-0.869-0.103-1.14-0.334 c-0.271-0.23-0.412-0.593-0.419-1.083l-0.036-2.243l0.793-0.013l0.036,2.243c0.001,0.097,0.011,0.193,0.03,0.287 c0.018,0.094,0.054,0.177,0.11,0.249c0.054,0.071,0.13,0.128,0.228,0.173c0.097,0.044,0.226,0.064,0.387,0.063 c0.283-0.005,0.477-0.071,0.582-0.199C42.014,7.298,42.065,7.1,42.06,6.83l-0.036-2.242l0.792-0.013l0.036,2.243 C42.861,7.305,42.729,7.671,42.46,7.912"/>
    </g>
    <polygon fill="#005497" points="45.621,4.918 46.617,7.587 46.626,7.59 47.106,5.219 47.833,5.365 47.119,8.9 46.342,8.743 &#10;&#9;&#9;&#9;&#9;45.35,6.08 45.339,6.078 44.861,8.443 44.133,8.296 44.848,4.763 &#9;&#9;&#9;"/>
    <rect x="47.472" y="7.378" transform="matrix(0.3514 -0.9362 0.9362 0.3514 24.6814 51.1749)" fill="#005497" width="3.606" height="0.794"/>
    <polygon fill="#005497" points="50.931,10.486 51.668,6.769 52.38,7.166 51.846,9.771 51.854,9.775 53.799,7.958 54.514,8.356 &#10;&#9;&#9;&#9;&#9;51.711,10.921 &#9;&#9;&#9;"/>
    <polygon fill="#005497" points="57.876,11.036 57.446,11.546 55.992,10.318 55.493,10.908 56.828,12.035 56.43,12.505 &#10;&#9;&#9;&#9;&#9;55.095,11.379 54.525,12.054 56.011,13.308 55.581,13.817 53.49,12.052 55.815,9.297 &#9;&#9;&#9;"/>
    <g>
      <path fill="#005497" d="M60.542,14.108c0.098,0.128,0.167,0.259,0.204,0.394c0.038,0.134,0.049,0.266,0.034,0.395 c-0.016,0.129-0.055,0.249-0.12,0.361c-0.064,0.112-0.152,0.209-0.261,0.294c-0.167,0.129-0.339,0.206-0.518,0.23 c-0.176,0.024-0.358-0.019-0.546-0.13l-0.009,0.006c0.039,0.094,0.055,0.184,0.05,0.268c-0.005,0.085-0.025,0.167-0.06,0.245 c-0.035,0.078-0.083,0.152-0.144,0.223c-0.06,0.069-0.125,0.135-0.191,0.197c-0.044,0.038-0.095,0.082-0.155,0.131 c-0.058,0.05-0.117,0.103-0.176,0.16c-0.059,0.056-0.112,0.113-0.157,0.172c-0.047,0.059-0.079,0.119-0.096,0.179l-0.484-0.627 c0.064-0.105,0.155-0.209,0.274-0.314s0.23-0.209,0.331-0.314c0.134-0.136,0.208-0.266,0.224-0.389 c0.017-0.124-0.037-0.263-0.159-0.42L58.1,14.54l-1.116,0.861L56.5,14.773l2.853-2.204L60.542,14.108z M59.077,14.881 c0.112,0.145,0.228,0.228,0.346,0.25c0.12,0.022,0.252-0.021,0.396-0.132c0.139-0.107,0.211-0.221,0.218-0.341 c0.008-0.12-0.044-0.252-0.156-0.396l-0.531-0.688l-0.803,0.621L59.077,14.881z"/>
      <path fill="#005497" d="M60.032,18.369c-0.056,0.076-0.093,0.159-0.107,0.246c-0.016,0.088-0.013,0.182,0.008,0.28 c0.02,0.099,0.053,0.195,0.099,0.289c0.031,0.064,0.069,0.13,0.115,0.197c0.045,0.068,0.1,0.126,0.162,0.175 c0.061,0.048,0.128,0.081,0.202,0.098c0.074,0.016,0.15,0.005,0.232-0.036c0.088-0.042,0.146-0.104,0.172-0.188 c0.027-0.083,0.037-0.178,0.029-0.287c-0.009-0.108-0.027-0.227-0.055-0.354c-0.029-0.129-0.055-0.26-0.079-0.395 c-0.029-0.135-0.05-0.272-0.062-0.408c-0.013-0.137-0.006-0.267,0.019-0.393c0.026-0.124,0.078-0.241,0.154-0.348 c0.077-0.106,0.189-0.196,0.337-0.269c0.167-0.08,0.328-0.116,0.486-0.104c0.158,0.011,0.305,0.055,0.443,0.129 c0.137,0.075,0.261,0.176,0.371,0.302c0.111,0.126,0.201,0.262,0.272,0.408c0.083,0.169,0.144,0.34,0.181,0.515 c0.039,0.174,0.044,0.342,0.019,0.505c-0.025,0.162-0.086,0.312-0.183,0.447c-0.098,0.135-0.239,0.249-0.427,0.34l-0.337-0.691 c0.094-0.052,0.164-0.112,0.21-0.178c0.047-0.066,0.075-0.136,0.083-0.211c0.008-0.075,0.002-0.154-0.02-0.234 c-0.021-0.083-0.053-0.167-0.096-0.254c-0.029-0.058-0.062-0.112-0.102-0.164c-0.041-0.051-0.087-0.093-0.142-0.125 c-0.053-0.032-0.108-0.053-0.169-0.061c-0.06-0.008-0.125,0.005-0.194,0.039c-0.064,0.032-0.109,0.069-0.136,0.112 c-0.028,0.042-0.041,0.108-0.04,0.196c0.002,0.087,0.017,0.202,0.044,0.343c0.028,0.142,0.066,0.327,0.113,0.555 c0.018,0.066,0.037,0.161,0.057,0.284c0.021,0.123,0.022,0.254,0.004,0.395c-0.017,0.14-0.065,0.277-0.145,0.411 c-0.08,0.134-0.209,0.245-0.391,0.333c-0.148,0.073-0.299,0.111-0.455,0.116c-0.155,0.004-0.307-0.027-0.454-0.096 c-0.147-0.069-0.289-0.174-0.421-0.317c-0.134-0.142-0.255-0.325-0.362-0.545c-0.088-0.179-0.15-0.362-0.188-0.552 c-0.039-0.188-0.042-0.371-0.011-0.545c0.031-0.174,0.101-0.334,0.209-0.481c0.107-0.146,0.263-0.267,0.464-0.36l0.338,0.689 C60.172,18.228,60.089,18.292,60.032,18.369"/>
    </g>
    <rect x="60.563" y="21.242" transform="matrix(0.955 -0.2966 0.2966 0.955 -3.6116 19.4732)" fill="#005497" width="3.607" height="0.793"/>
    <polygon fill="#005497" points="63.981,23.11 64.639,23.009 65.091,25.929 64.431,26.03 64.267,24.961 61.362,25.41 &#10;&#9;&#9;&#9;&#9;61.241,24.626 64.146,24.178 &#9;&#9;&#9;"/>
    <polygon fill="#005497" points="65.189,27.244 65.155,28.131 63.701,28.921 65.093,29.813 65.06,30.694 62.889,29.275 &#10;&#9;&#9;&#9;&#9;61.506,29.223 61.536,28.431 62.939,28.483 &#9;&#9;&#9;"/>
  </g>
  <g transform="matrix(1, 0, 0, 1, 0, 1.4210854715202004e-14)">
    <polyline points="16.874,82.914 16.874,101.42 13.203,101.42 13.203,102.078 24.592,102.078 24.592,101.42 &#10;&#9;&#9;&#9;&#9;20.922,101.42 20.922,81.266 &#9;&#9;&#9;" style="fill: none; stroke: rgb(0, 73, 144);"/>
    <rect x="16.546" y="79.167" transform="matrix(-0.3735 -0.9276 0.9276 -0.3735 -54.0497 130.0296)" width="0.676" height="8.199" style="fill: none; stroke: rgb(0, 73, 144);"/>
    <g>
      <path d="M35.415,81.77c0.393-0.846,0.911-1.537,1.553-2.07c0.644-0.533,1.38-0.924,2.212-1.176 c0.832-0.252,1.67-0.377,2.518-0.377c1.318,0,2.369,0.268,3.153,0.801c0.784,0.535,1.381,1.246,1.79,2.141 c0.407,0.895,0.674,1.922,0.799,3.084c0.125,1.162,0.189,2.383,0.189,3.67c0,1.537-0.071,2.939-0.212,4.213 c-0.142,1.271-0.432,2.371-0.871,3.293c-0.439,0.926-1.066,1.648-1.882,2.166s-1.882,0.777-3.201,0.777 c-1.381,0-2.502-0.299-3.365-0.895s-1.537-1.465-2.022-2.611c-0.488-1.146-0.816-2.557-0.989-4.238 c-0.172-1.678-0.259-3.582-0.259-5.717C34.827,83.637,35.024,82.617,35.415,81.77 M34.969,81.16l-0.095-0.096 c0.219-2.037,0.541-4.031,0.965-5.977s0.996-3.688,1.718-5.225c0.722-1.537,1.648-2.777,2.777-3.719 c1.129-0.939,2.51-1.41,4.142-1.41c0.846,0,1.552,0.188,2.118,0.564c0.565,0.377,0.847,0.926,0.847,1.648 c0,0.408-0.063,0.775-0.188,1.104c-0.125,0.33-0.266,0.637-0.423,0.918c-0.158,0.283-0.299,0.559-0.424,0.824 c-0.125,0.268-0.188,0.525-0.188,0.777c0,0.408,0.171,0.752,0.517,1.035c0.346,0.281,0.896,0.424,1.648,0.424 c0.816,0,1.465-0.205,1.953-0.613c0.486-0.406,0.729-1.002,0.729-1.789c0-0.625-0.127-1.27-0.377-1.93 c-0.25-0.658-0.635-1.252-1.152-1.785c-0.519-0.533-1.17-0.975-1.954-1.318c-0.785-0.346-1.727-0.52-2.823-0.52 c-1.758,0-3.492,0.488-5.201,1.459c-1.71,0.973-3.231,2.354-4.565,4.141c-1.334,1.791-2.416,3.963-3.247,6.52 c-0.833,2.557-1.248,5.438-1.248,8.637c0,2.197,0.298,4.166,0.894,5.908c0.595,1.74,1.388,3.215,2.376,4.422 c0.989,1.209,2.149,2.133,3.483,2.777c1.333,0.643,2.722,0.965,4.165,0.965c1.349,0,2.675-0.275,3.978-0.822 c1.301-0.551,2.471-1.303,3.506-2.262c1.035-0.955,1.866-2.1,2.495-3.436c0.626-1.332,0.94-2.783,0.94-4.352 c0-1.477-0.282-2.857-0.847-4.145c-0.565-1.285-1.326-2.398-2.282-3.34c-0.958-0.941-2.071-1.686-3.342-2.236 c-1.271-0.547-2.628-0.822-4.07-0.822c-1.601,0-2.99,0.352-4.166,1.059C36.451,79.252,35.563,80.125,34.969,81.16" style="fill: none; stroke: rgb(0, 73, 144);"/>
      <path d="M69.849,91.627c0,2.133-0.141,3.848-0.422,5.145c-0.281,1.299-0.646,2.301-1.099,3.012 c-0.452,0.709-0.977,1.18-1.575,1.414c-0.598,0.23-1.215,0.348-1.85,0.348s-1.251-0.117-1.851-0.348 c-0.597-0.234-1.123-0.705-1.575-1.414c-0.452-0.711-0.819-1.713-1.099-3.012c-0.28-1.297-0.42-3.012-0.42-5.145 s0.141-3.848,0.42-5.143c0.28-1.299,0.647-2.303,1.099-3.014c0.452-0.709,0.978-1.18,1.575-1.412 c0.599-0.232,1.216-0.348,1.851-0.348s1.251,0.115,1.85,0.348s1.124,0.703,1.575,1.412c0.452,0.711,0.818,1.715,1.099,3.014 C69.708,87.779,69.849,89.494,69.849,91.627 M73.401,91.627c0-1.512-0.256-2.912-0.769-4.193 c-0.513-1.281-1.173-2.395-1.978-3.338c-0.806-0.939-1.717-1.684-2.729-2.223c-1.013-0.541-2.021-0.813-3.022-0.813 c-1.002,0-2.008,0.271-3.021,0.813c-1.013,0.539-1.923,1.283-2.729,2.223c-0.806,0.943-1.464,2.057-1.977,3.338 s-0.77,2.682-0.77,4.193c0,1.422,0.239,2.766,0.715,4.031c0.476,1.268,1.111,2.381,1.905,3.336 c0.793,0.959,1.696,1.723,2.71,2.297c1.013,0.568,2.069,0.855,3.168,0.855c1.099,0,2.155-0.287,3.168-0.855 c1.012-0.574,1.917-1.338,2.711-2.297c0.792-0.955,1.429-2.068,1.905-3.336C73.164,94.393,73.401,93.049,73.401,91.627" style="fill: none; stroke: rgb(0, 73, 144);"/>
    </g>
    <path d="M24.594,108.736H0.582v-1.566h24.012V108.736z M1.365,107.955H23.81H1.365z" style="fill: none; stroke: rgb(0, 73, 144);"/>
    <rect x="0.582" y="74.908" width="24.012" height="1.572" style="fill: none; stroke: rgb(0, 73, 144);"/>
    <path d="M80.621,108.736H56.607v-1.566h24.013V108.736z M57.391,107.955h22.444H57.391z" style="fill: none; stroke: rgb(0, 73, 144);"/>
    <rect x="56.607" y="74.908" width="24.013" height="1.572" style="fill: none; stroke: rgb(0, 73, 144);"/>
    <g>
      <path d="M49.167,106.189h0.874c0.454,0,0.726,0.006,0.817,0.02c0.182,0.029,0.322,0.104,0.422,0.217 c0.1,0.115,0.149,0.266,0.149,0.453c0,0.166-0.038,0.303-0.113,0.416c-0.076,0.109-0.181,0.189-0.315,0.234 c-0.132,0.047-0.468,0.07-1.005,0.07h-0.829V106.189z M49.167,110.799v-2.316h0.227c0.257,0,0.445,0.02,0.564,0.063 c0.117,0.043,0.23,0.119,0.336,0.23c0.105,0.113,0.303,0.385,0.59,0.814l0.809,1.209h1.34l-0.677-1.082 c-0.267-0.434-0.48-0.732-0.638-0.902c-0.158-0.166-0.357-0.324-0.599-0.465c0.487-0.072,0.852-0.24,1.097-0.514 c0.245-0.268,0.367-0.615,0.367-1.029c0-0.328-0.08-0.619-0.242-0.875c-0.161-0.256-0.376-0.432-0.646-0.529 c-0.268-0.102-0.699-0.152-1.292-0.152h-2.356v5.549H49.167z M42.789,108.604l0.75-2.059l0.763,2.059H42.789z M44.143,105.25 h-1.185l-2.159,5.549h1.188l0.458-1.26h2.217l0.484,1.26h1.218L44.143,105.25z M39.328,110.799v-0.936H36.23v-1.51h2.783v-0.936 H36.23v-1.229h2.992v-0.939H35.11v5.549H39.328z M31.43,110.799v-2.326l2.039-3.223h-1.29l-1.278,2.195l-1.306-2.195h-1.313 l2.031,3.215v2.334H31.43z" style="fill: none; stroke: rgb(0, 73, 144);"/>
      <path d="M78.127,83.914h-0.542v-1.191c0-0.568,0.039-0.947,0.118-1.139c0.078-0.193,0.192-0.363,0.343-0.518 c0.175-0.174,0.353-0.262,0.534-0.262c0.266,0,0.428,0.143,0.488,0.428c0.018,0.1,0.027,0.455,0.027,1.057v1.625h-0.569v0.227 h2.097v-0.227h-0.57v-1.4c0-0.711-0.027-1.197-0.081-1.455c-0.042-0.193-0.19-0.338-0.443-0.434 c-0.192-0.078-0.404-0.117-0.633-0.117c-0.626,0-1.061,0.289-1.302,0.867h-0.019v-3.406c-0.572,0.105-1.114,0.15-1.626,0.133 v0.227H76.6v5.586h-0.597v0.227h2.125V83.914z M72.994,80.67v0.271h0.578v2.557c0,0.273,0.057,0.465,0.172,0.578 c0.138,0.135,0.4,0.201,0.786,0.201c0.549,0,0.916-0.248,1.103-0.742l-0.181-0.092c-0.114,0.322-0.299,0.48-0.552,0.48 c-0.157,0-0.259-0.047-0.307-0.143c-0.03-0.063-0.045-0.18-0.045-0.355v-2.484h0.859V80.67h-0.859v-1.104l-0.977,0.055v1.049 H72.994z" style="fill: none; stroke: rgb(0, 73, 144);"/>
    </g>
  </g>
  <g transform="matrix(1, 0, 0, 1, 0, 1.4210854715202004e-14)">
    <rect x="108.915" y="49.194" width="537.666" height="72.701" fill="none"/>
    <path stroke="#FFFFFF" stroke-width="0.25" stroke-miterlimit="10" d="M113.672,54.325 c0-4.409,0-5.221-0.058-6.149c-0.058-0.986-0.29-1.451-1.248-1.653c-0.232-0.058-0.725-0.087-1.131-0.087 c-0.319,0-0.493-0.058-0.493-0.261s0.203-0.261,0.638-0.261c1.537,0,3.365,0.087,3.945,0.087c1.421,0,2.553-0.087,3.539-0.087 c5.25,0,6.179,2.814,6.179,4.351c0,2.378-1.363,3.8-2.959,5.076c2.379,0.812,5.279,2.872,5.279,6.265 c0,3.104-2.407,6.324-7.745,6.324c-0.348,0-1.189-0.059-2.031-0.088c-0.87-0.058-1.74-0.086-2.175-0.086 c-0.319,0-0.957,0-1.653,0.028c-0.667,0-1.421,0.058-2.001,0.058c-0.377,0-0.58-0.086-0.58-0.289c0-0.146,0.116-0.232,0.464-0.232 c0.435,0,0.783-0.059,1.044-0.116c0.58-0.116,0.725-0.754,0.841-1.595c0.145-1.219,0.145-3.51,0.145-6.18V54.325z M117.153,54.818 c0,0.232,0.087,0.29,0.203,0.319c0.261,0.058,0.696,0.087,1.363,0.087c0.958,0,1.596-0.116,2.089-0.551 c0.754-0.609,1.189-1.653,1.189-3.075c0-1.944-1.131-4.496-3.626-4.496c-0.406,0-0.667,0-0.957,0.058 c-0.203,0.058-0.261,0.174-0.261,0.493V54.818z M120.982,57.139c-0.609-0.436-1.276-0.639-2.408-0.695 c-0.522-0.029-0.812-0.029-1.247-0.029c-0.116,0-0.174,0.058-0.174,0.203v6.874c0,1.915,0.087,2.407,1.016,2.784 c0.783,0.32,1.45,0.349,2.117,0.349c1.306,0,3.51-0.696,3.51-3.713C123.795,61.113,123.187,58.676,120.982,57.139z" style="fill: rgb(0, 73, 144);"/>
    <path stroke="#FFFFFF" stroke-width="0.25" stroke-miterlimit="10" d="M132.173,56.878 c0-4.96,3.278-11.371,11.98-11.371c7.223,0,11.719,4.206,11.719,10.849s-4.641,11.893-12.009,11.893 C135.538,68.248,132.173,62.012,132.173,56.878z M151.811,57.429c0-6.498-3.742-10.529-8.499-10.529 c-3.335,0-7.136,1.856-7.136,9.079c0,6.033,3.336,10.82,8.905,10.82C147.112,66.799,151.811,65.813,151.811,57.429z" style="fill: rgb(0, 73, 144);"/>
    <path stroke="#FFFFFF" stroke-width="0.25" stroke-miterlimit="10" d="M181.565,65.898 c0,0.783-0.029,0.842-0.377,1.045c-1.885,0.986-4.728,1.305-6.991,1.305c-7.106,0-13.401-3.364-13.401-11.37 c0-4.641,2.408-7.89,5.047-9.485c2.785-1.683,5.366-1.886,7.803-1.886c2.001,0,4.554,0.348,5.134,0.464 c0.609,0.116,1.625,0.29,2.292,0.319c0.348,0.029,0.406,0.145,0.406,0.348c0,0.319-0.203,1.131-0.203,4.757 c0,0.464-0.087,0.609-0.319,0.609c-0.203,0-0.261-0.145-0.29-0.377c-0.087-0.667-0.232-1.595-0.986-2.408 c-0.87-0.928-3.191-2.262-6.469-2.262c-1.595,0-3.713,0.116-5.743,1.798c-1.625,1.363-2.669,3.539-2.669,7.106 c0,6.237,3.974,10.907,10.095,10.907c0.754,0,1.77,0,2.465-0.319c0.435-0.203,0.551-0.58,0.551-1.073V62.65 c0-1.451,0-2.553-0.029-3.423c-0.029-0.986-0.29-1.45-1.248-1.653c-0.232-0.059-0.725-0.088-1.131-0.088 c-0.261,0-0.435-0.058-0.435-0.231c0-0.231,0.203-0.29,0.609-0.29c1.508,0,3.335,0.087,4.206,0.087 c0.899,0,2.437-0.087,3.394-0.087c0.377,0,0.58,0.059,0.58,0.29c0,0.174-0.174,0.231-0.377,0.231 c-0.232,0-0.435,0.029-0.783,0.088c-0.783,0.145-1.073,0.638-1.102,1.653c-0.029,0.87-0.029,2.03-0.029,3.48V65.898z M169.005,41.185l0.958-0.754c0.203-0.174,0.29-0.203,0.377-0.203c0.174,0,0.348,0.377,0.609,0.667 c1.015,1.189,1.914,1.276,2.668,1.276c1.276,0,2.263-0.609,2.553-0.813c0.899-0.696,1.073-1.073,1.276-1.073 c0.145,0,0.232,0.116,0.232,0.261c0,0.435-1.16,1.711-1.828,2.146c-0.957,0.638-1.682,0.986-3.133,0.986 c-0.812,0-2.03-0.348-2.872-1.044c-0.435-0.348-1.073-0.928-1.073-1.16C168.773,41.301,168.918,41.243,169.005,41.185z" style="fill: rgb(0, 73, 144);"/>
    <path stroke="#FFFFFF" stroke-width="0.25" stroke-miterlimit="10" d="M192.552,60.445 c-0.145,0-0.203,0.059-0.261,0.232l-1.566,3.975c-0.29,0.725-0.435,1.42-0.435,1.769c0,0.522,0.261,0.899,1.16,0.899h0.436 c0.348,0,0.435,0.059,0.435,0.232c0,0.231-0.174,0.289-0.493,0.289c-0.928,0-2.176-0.086-3.075-0.086 c-0.319,0-1.915,0.086-3.423,0.086c-0.377,0-0.551-0.058-0.551-0.289c0-0.174,0.116-0.232,0.348-0.232 c0.261,0,0.667-0.029,0.899-0.059c1.334-0.174,1.886-1.16,2.466-2.609l7.281-17.985c0.348-0.841,0.522-1.161,0.812-1.161 c0.261,0,0.435,0.261,0.726,0.928c0.696,1.596,5.337,13.198,7.193,17.608c1.103,2.61,1.943,3.016,2.553,3.161 c0.435,0.087,0.87,0.116,1.218,0.116c0.232,0,0.377,0.029,0.377,0.232c0,0.231-0.261,0.289-1.334,0.289 c-1.044,0-3.162,0-5.482-0.058c-0.522-0.028-0.87-0.028-0.87-0.231c0-0.174,0.116-0.232,0.406-0.262 c0.203-0.058,0.406-0.318,0.261-0.667l-2.32-5.976c-0.058-0.145-0.145-0.203-0.291-0.203H192.552z M198.47,58.995 c0.145,0,0.174-0.087,0.145-0.174l-2.611-7.136c-0.029-0.116-0.058-0.261-0.145-0.261s-0.145,0.145-0.174,0.261l-2.669,7.106 c-0.029,0.116,0,0.203,0.116,0.203H198.47z" style="fill: rgb(0, 73, 144);"/>
    <path stroke="#FFFFFF" stroke-width="0.25" stroke-miterlimit="10" d="M222.25,66.16 c2.959,0,4.09-0.725,4.554-1.596c0.261-0.464,0.435-0.986,0.522-1.393c0.058-0.289,0.116-0.464,0.29-0.464 c0.232,0,0.29,0.203,0.29,0.899c0,0.928-0.377,2.813-0.58,3.539c-0.145,0.521-0.348,0.754-0.87,0.754 c-4.844,0-9.717-0.145-15.577-0.145c-0.319,0-0.493-0.088-0.493-0.291s0.087-0.348,0.435-0.869 c4.09-6.383,8.383-12.938,12.27-19.058h-5.686c-1.479,0-3.249,0.087-4.177,0.609c-0.958,0.522-1.479,1.596-1.566,2.263 c-0.058,0.406-0.174,0.522-0.348,0.522c-0.203,0-0.232-0.145-0.232-0.493c0-0.667,0.435-3.307,0.58-4.177 c0.058-0.406,0.174-0.551,0.348-0.551c0.261,0,0.435,0.174,1.16,0.203c2.756,0.116,4.148,0.087,5.337,0.087h8.847 c0.29,0,0.493,0.087,0.493,0.232c0,0.174-0.116,0.348-0.232,0.551c-4.003,6.498-8.412,13.141-12.502,19.377H222.25z" style="fill: rgb(0, 73, 144);"/>
    <path stroke="#FFFFFF" stroke-width="0.25" stroke-miterlimit="10" d="M235.762,54.325 c0-4.409,0-5.221-0.058-6.149c-0.058-0.986-0.348-1.479-0.986-1.625c-0.319-0.087-0.696-0.116-1.044-0.116 c-0.29,0-0.464-0.058-0.464-0.29c0-0.174,0.232-0.232,0.696-0.232c1.102,0,2.93,0.087,3.771,0.087 c0.726,0,2.437-0.087,3.539-0.087c0.377,0,0.609,0.058,0.609,0.232c0,0.232-0.174,0.29-0.464,0.29s-0.522,0.029-0.87,0.087 c-0.783,0.145-1.015,0.638-1.073,1.653c-0.058,0.928-0.058,1.74-0.058,6.149v5.104c0,2.814,0,5.105,0.116,6.354 c0.087,0.783,0.29,1.305,1.16,1.421c0.406,0.058,1.044,0.116,1.479,0.116c0.319,0,0.464,0.087,0.464,0.232 c0,0.203-0.232,0.289-0.551,0.289c-1.914,0-3.742-0.086-4.525-0.086c-0.667,0-2.495,0.086-3.655,0.086 c-0.377,0-0.58-0.086-0.58-0.289c0-0.146,0.116-0.232,0.464-0.232c0.435,0,0.783-0.059,1.044-0.116 c0.58-0.116,0.754-0.608,0.841-1.45c0.145-1.219,0.145-3.51,0.145-6.324V54.325z M235.936,42.055c0-0.725,0.464-1.683,1.625-1.683 c0.928,0,1.653,0.609,1.653,1.566c0,0.958-0.667,1.741-1.653,1.741C236.4,43.68,235.936,42.78,235.936,42.055z" style="fill: rgb(0, 73, 144);"/>
    <path stroke="#FFFFFF" stroke-width="0.25" stroke-miterlimit="10" d="M257.078,69.757 c2.118,0.203,3.423,1.015,3.423,2.321c0,1.16-1.189,3.104-5.337,3.104c-0.261,0-0.493-0.088-0.493-0.291 c0-0.261,0.348-0.377,0.754-0.377c0.958,0,2.437-0.725,2.437-1.943c0-0.783-0.348-1.827-2.292-2.117 c-0.406-0.059-0.638-0.145-0.638-0.232c0-0.087,0.087-0.145,0.464-0.436l2.32-1.74c-5.395-0.725-10.559-4.119-10.559-11.516 c0-1.972,0.609-5.395,3.394-7.948c2.088-1.914,4.844-3.075,9.166-3.075c1.798,0,2.872,0.116,4.206,0.29 c1.103,0.145,2.031,0.406,2.901,0.493c0.319,0.029,0.435,0.174,0.435,0.348c0,0.232-0.087,0.58-0.145,1.596 c-0.058,0.957-0.029,2.552-0.087,3.132c-0.029,0.436-0.087,0.667-0.348,0.667c-0.232,0-0.29-0.232-0.29-0.638 c-0.029-0.899-0.406-1.915-1.131-2.668c-0.958-1.016-3.22-1.799-5.889-1.799c-2.523,0-4.177,0.638-5.453,1.799 c-2.118,1.943-2.668,4.699-2.668,7.513c0,6.902,5.25,10.326,9.137,10.326c2.582,0,4.148-0.291,5.308-1.625 c0.493-0.551,0.87-1.393,0.986-1.914c0.087-0.465,0.145-0.58,0.377-0.58c0.203,0,0.261,0.203,0.261,0.436 c0,0.348-0.348,2.871-0.638,3.857c-0.145,0.493-0.261,0.639-0.754,0.842c-1.16,0.463-3.365,0.666-5.221,0.666 c-0.551,0-1.073-0.029-1.537-0.058L257.078,69.757z" style="fill: rgb(0, 73, 144);"/>
    <path stroke="#FFFFFF" stroke-width="0.25" stroke-miterlimit="10" d="M275.259,54.325 c0-4.409,0-5.221-0.058-6.149c-0.058-0.986-0.348-1.479-0.986-1.625c-0.319-0.087-0.696-0.116-1.044-0.116 c-0.29,0-0.464-0.058-0.464-0.29c0-0.174,0.232-0.232,0.696-0.232c1.102,0,2.93,0.087,3.771,0.087 c0.726,0,2.437-0.087,3.539-0.087c0.377,0,0.61,0.058,0.61,0.232c0,0.232-0.175,0.29-0.465,0.29s-0.522,0.029-0.87,0.087 c-0.783,0.145-1.015,0.638-1.073,1.653c-0.058,0.928-0.058,1.74-0.058,6.149v5.104c0,2.814,0,5.105,0.116,6.354 c0.087,0.783,0.29,1.305,1.16,1.421c0.406,0.058,1.044,0.116,1.479,0.116c0.319,0,0.465,0.087,0.465,0.232 c0,0.203-0.232,0.289-0.552,0.289c-1.914,0-3.742-0.086-4.525-0.086c-0.667,0-2.495,0.086-3.655,0.086 c-0.377,0-0.58-0.086-0.58-0.289c0-0.146,0.116-0.232,0.464-0.232c0.435,0,0.783-0.059,1.044-0.116 c0.58-0.116,0.754-0.608,0.841-1.45c0.145-1.219,0.145-3.51,0.145-6.324V54.325z M275.433,42.055c0-0.725,0.464-1.683,1.625-1.683 c0.928,0,1.653,0.609,1.653,1.566c0,0.958-0.667,1.741-1.653,1.741C275.897,43.68,275.433,42.78,275.433,42.055z" style="fill: rgb(0, 73, 144);"/>
    <path stroke="#FFFFFF" stroke-width="0.25" stroke-miterlimit="10" d="M299.3,54.325c0-4.409,0-5.221-0.059-6.149 c-0.058-0.986-0.29-1.451-1.247-1.653c-0.232-0.058-0.725-0.087-1.131-0.087c-0.319,0-0.494-0.058-0.494-0.261 s0.203-0.261,0.639-0.261c1.537,0,3.365,0.087,4.235,0.087c0.696,0,2.523-0.087,3.567-0.087c0.436,0,0.639,0.058,0.639,0.261 s-0.175,0.261-0.465,0.261c-0.318,0-0.493,0.029-0.841,0.087c-0.783,0.145-1.016,0.638-1.073,1.653 c-0.058,0.928-0.058,1.74-0.058,6.149v4.062c0,4.205,0.841,5.975,2.262,7.135c1.306,1.074,2.64,1.189,3.626,1.189 c1.276,0,2.843-0.406,4.003-1.566c1.596-1.596,1.683-4.205,1.683-7.193v-3.626c0-4.409,0-5.221-0.058-6.149 c-0.059-0.986-0.29-1.451-1.248-1.653c-0.231-0.058-0.725-0.087-1.044-0.087s-0.493-0.058-0.493-0.261s0.203-0.261,0.609-0.261 c1.479,0,3.307,0.087,3.336,0.087c0.348,0,2.176-0.087,3.307-0.087c0.406,0,0.609,0.058,0.609,0.261s-0.174,0.261-0.522,0.261 c-0.319,0-0.493,0.029-0.841,0.087c-0.783,0.145-1.016,0.638-1.073,1.653c-0.059,0.928-0.059,1.74-0.059,6.149v3.104 c0,3.22-0.318,6.643-2.756,8.731c-2.059,1.77-4.147,2.088-6.033,2.088c-1.537,0-4.322-0.086-6.439-2.001 c-1.479-1.335-2.581-3.481-2.581-7.687V54.325z" style="fill: rgb(0, 73, 144);"/>
    <path stroke="#FFFFFF" stroke-width="0.25" stroke-miterlimit="10" d="M328.62,63.897 c0.058,2.263,0.435,3.017,1.015,3.22c0.493,0.174,1.045,0.203,1.509,0.203c0.319,0,0.493,0.059,0.493,0.232 c0,0.231-0.262,0.289-0.667,0.289c-1.886,0-3.046-0.086-3.598-0.086c-0.261,0-1.624,0.086-3.132,0.086 c-0.378,0-0.639-0.028-0.639-0.289c0-0.174,0.174-0.232,0.464-0.232c0.377,0,0.899-0.029,1.306-0.145 c0.754-0.232,0.87-1.074,0.899-3.598l0.261-17.085c0-0.58,0.087-0.986,0.377-0.986c0.319,0,0.58,0.377,1.073,0.899 c0.349,0.377,4.758,5.018,8.992,9.224c1.973,1.973,5.889,6.149,6.382,6.614h0.145l-0.29-13.024c-0.028-1.769-0.29-2.32-0.986-2.61 c-0.435-0.174-1.131-0.174-1.537-0.174c-0.348,0-0.464-0.087-0.464-0.261c0-0.232,0.319-0.261,0.754-0.261 c1.509,0,2.901,0.087,3.51,0.087c0.319,0,1.422-0.087,2.843-0.087c0.377,0,0.667,0.029,0.667,0.261 c0,0.174-0.174,0.261-0.521,0.261c-0.29,0-0.522,0-0.87,0.087c-0.813,0.232-1.045,0.841-1.073,2.465l-0.319,18.303 c0,0.639-0.116,0.899-0.377,0.899c-0.319,0-0.667-0.319-0.986-0.638c-1.827-1.74-5.54-5.541-8.558-8.528 c-3.161-3.133-6.381-6.672-6.903-7.223h-0.087L328.62,63.897z" style="fill: rgb(0, 73, 144);"/>
    <path stroke="#FFFFFF" stroke-width="0.25" stroke-miterlimit="10" d="M356.197,54.325 c0-4.409,0-5.221-0.058-6.149c-0.058-0.986-0.349-1.479-0.986-1.625c-0.319-0.087-0.696-0.116-1.044-0.116 c-0.29,0-0.465-0.058-0.465-0.29c0-0.174,0.232-0.232,0.696-0.232c1.103,0,2.93,0.087,3.771,0.087 c0.725,0,2.437-0.087,3.538-0.087c0.378,0,0.609,0.058,0.609,0.232c0,0.232-0.174,0.29-0.464,0.29s-0.522,0.029-0.87,0.087 c-0.783,0.145-1.016,0.638-1.073,1.653c-0.058,0.928-0.058,1.74-0.058,6.149v5.104c0,2.814,0,5.105,0.115,6.354 c0.087,0.783,0.29,1.305,1.16,1.421c0.406,0.058,1.045,0.116,1.479,0.116c0.319,0,0.465,0.087,0.465,0.232 c0,0.203-0.232,0.289-0.552,0.289c-1.914,0-3.742-0.086-4.525-0.086c-0.667,0-2.494,0.086-3.654,0.086 c-0.377,0-0.58-0.086-0.58-0.289c0-0.146,0.116-0.232,0.464-0.232c0.436,0,0.783-0.059,1.044-0.116 c0.58-0.116,0.755-0.608,0.842-1.45c0.145-1.219,0.145-3.51,0.145-6.324V54.325z" style="fill: rgb(0, 73, 144);"/>
    <path stroke="#FFFFFF" stroke-width="0.25" stroke-miterlimit="10" d="M368.377,48.756 c-0.668-1.595-1.16-1.915-2.205-2.205c-0.435-0.116-0.899-0.116-1.131-0.116c-0.262,0-0.349-0.087-0.349-0.261 c0-0.232,0.319-0.261,0.755-0.261c1.537,0,3.19,0.087,4.206,0.087c0.725,0,2.117-0.087,3.567-0.087 c0.348,0,0.667,0.058,0.667,0.261s-0.174,0.261-0.435,0.261c-0.465,0-0.899,0.029-1.132,0.203c-0.203,0.145-0.29,0.348-0.29,0.609 c0,0.377,0.262,1.189,0.667,2.233l4.989,13.169h0.116c1.247-3.191,5.019-12.531,5.715-14.446c0.145-0.377,0.261-0.812,0.261-1.073 c0-0.232-0.116-0.464-0.377-0.551c-0.349-0.116-0.783-0.145-1.16-0.145c-0.262,0-0.493-0.029-0.493-0.232 c0-0.232,0.261-0.29,0.812-0.29c1.451,0,2.669,0.087,3.046,0.087c0.493,0,1.856-0.087,2.727-0.087 c0.378,0,0.609,0.058,0.609,0.261s-0.174,0.261-0.464,0.261s-0.899,0-1.422,0.348c-0.377,0.261-0.812,0.754-1.595,2.611 c-1.132,2.727-1.915,4.293-3.481,7.861c-1.856,4.235-3.22,7.397-3.857,8.847c-0.754,1.683-0.929,2.146-1.334,2.146 c-0.378,0-0.552-0.406-1.103-1.77L368.377,48.756z" style="fill: rgb(0, 73, 144);"/>
    <path stroke="#FFFFFF" stroke-width="0.25" stroke-miterlimit="10" d="M393.781,54.325 c0-4.409,0-5.221-0.058-6.149c-0.058-0.986-0.29-1.451-1.247-1.653c-0.232-0.058-0.726-0.087-1.132-0.087 c-0.318,0-0.493-0.058-0.493-0.261s0.203-0.261,0.639-0.261c0.783,0,1.624,0.029,2.35,0.029c0.754,0.029,1.421,0.058,1.827,0.058 c0.929,0,6.7,0,7.252-0.029c0.551-0.058,1.015-0.116,1.247-0.174c0.146-0.029,0.319-0.116,0.464-0.116 c0.146,0,0.175,0.116,0.175,0.261c0,0.203-0.146,0.551-0.232,1.886c-0.029,0.29-0.087,1.566-0.146,1.915 c-0.028,0.145-0.087,0.319-0.29,0.319s-0.261-0.145-0.261-0.406c0-0.203-0.029-0.696-0.174-1.044 c-0.203-0.522-0.493-0.87-1.943-1.044c-0.493-0.058-3.539-0.116-4.119-0.116c-0.146,0-0.203,0.087-0.203,0.29v7.338 c0,0.203,0.029,0.319,0.203,0.319c0.638,0,3.974,0,4.641-0.058c0.696-0.058,1.132-0.145,1.393-0.435 c0.203-0.232,0.319-0.377,0.464-0.377c0.116,0,0.203,0.058,0.203,0.232s-0.116,0.638-0.231,2.118 c-0.029,0.58-0.116,1.74-0.116,1.943c0,0.231,0,0.552-0.262,0.552c-0.202,0-0.261-0.117-0.261-0.262 c-0.029-0.29-0.029-0.667-0.116-1.045c-0.145-0.58-0.551-1.015-1.624-1.131c-0.551-0.058-3.423-0.087-4.119-0.087 c-0.145,0-0.174,0.116-0.174,0.29v2.291c0,0.986-0.029,3.656,0,4.496c0.058,2.002,0.522,2.438,3.48,2.438 c0.755,0,1.973,0,2.727-0.348c0.755-0.349,1.103-0.958,1.306-2.146c0.058-0.32,0.116-0.436,0.319-0.436 c0.231,0,0.231,0.232,0.231,0.521c0,0.668-0.231,2.641-0.377,3.221c-0.203,0.754-0.464,0.754-1.566,0.754 c-2.175,0-3.771-0.059-5.018-0.088c-1.248-0.058-2.146-0.086-3.018-0.086c-0.318,0-0.957,0-1.653,0.028 c-0.667,0-1.421,0.058-2.001,0.058c-0.377,0-0.58-0.086-0.58-0.289c0-0.146,0.116-0.232,0.464-0.232 c0.436,0,0.783-0.059,1.044-0.116c0.58-0.116,0.726-0.754,0.842-1.595c0.145-1.219,0.145-3.51,0.145-6.18V54.325z" style="fill: rgb(0, 73, 144);"/>
    <path stroke="#FFFFFF" stroke-width="0.25" stroke-miterlimit="10" d="M413.85,54.325c0-4.409,0-5.221-0.058-6.149 c-0.058-0.986-0.29-1.451-1.247-1.653c-0.232-0.058-0.726-0.087-1.132-0.087c-0.318,0-0.493-0.058-0.493-0.261 s0.203-0.261,0.639-0.261c1.537,0,3.364,0.087,3.974,0.087c0.986,0,3.19-0.087,4.09-0.087c1.828,0,3.771,0.174,5.338,1.248 c0.812,0.551,1.972,2.03,1.972,3.974c0,2.146-0.898,4.119-3.828,6.498c2.581,3.249,4.583,5.831,6.294,7.629 c1.625,1.683,2.813,1.886,3.249,1.973c0.319,0.058,0.58,0.087,0.813,0.087c0.231,0,0.348,0.087,0.348,0.232 c0,0.231-0.203,0.289-0.551,0.289H430.5c-1.624,0-2.35-0.145-3.104-0.551c-1.248-0.667-2.35-2.03-3.975-4.264 c-1.16-1.596-2.494-3.568-2.871-4.003c-0.146-0.175-0.319-0.203-0.522-0.203l-2.523-0.058c-0.146,0-0.232,0.058-0.232,0.231v0.406 c0,2.698,0,4.989,0.146,6.208c0.087,0.841,0.261,1.479,1.131,1.595c0.436,0.058,1.073,0.116,1.422,0.116 c0.231,0,0.348,0.087,0.348,0.232c0,0.203-0.203,0.289-0.58,0.289c-1.683,0-3.829-0.086-4.264-0.086 c-0.552,0-2.379,0.086-3.539,0.086c-0.377,0-0.58-0.086-0.58-0.289c0-0.146,0.116-0.232,0.464-0.232 c0.436,0,0.783-0.059,1.044-0.116c0.58-0.116,0.726-0.754,0.842-1.595c0.145-1.219,0.145-3.51,0.145-6.18V54.325z M417.272,56.617 c0,0.318,0.059,0.435,0.262,0.521c0.608,0.203,1.479,0.29,2.204,0.29c1.16,0,1.537-0.116,2.06-0.493 c0.87-0.638,1.711-1.972,1.711-4.351c0-4.119-2.727-5.309-4.438-5.309c-0.726,0-1.247,0.029-1.537,0.116 c-0.203,0.058-0.262,0.174-0.262,0.406V56.617z" style="fill: rgb(0, 73, 144);"/>
    <path stroke="#FFFFFF" stroke-width="0.25" stroke-miterlimit="10" d="M435.453,67.494 c-0.465-0.203-0.552-0.348-0.552-0.986c0-1.596,0.116-3.336,0.146-3.8c0.029-0.435,0.116-0.754,0.348-0.754 c0.262,0,0.29,0.261,0.29,0.493c0,0.377,0.116,0.986,0.262,1.479c0.638,2.146,2.35,2.93,4.147,2.93 c2.61,0,3.887-1.769,3.887-3.307c0-1.421-0.435-2.756-2.843-4.641l-1.334-1.045c-3.19-2.494-4.293-4.524-4.293-6.874 c0-3.191,2.669-5.482,6.7-5.482c1.886,0,3.104,0.29,3.858,0.493c0.261,0.058,0.406,0.145,0.406,0.348 c0,0.377-0.116,1.218-0.116,3.481c0,0.638-0.087,0.87-0.319,0.87c-0.203,0-0.29-0.174-0.29-0.522c0-0.261-0.145-1.16-0.754-1.915 c-0.436-0.551-1.276-1.421-3.162-1.421c-2.146,0-3.451,1.248-3.451,2.988c0,1.334,0.667,2.35,3.074,4.177l0.813,0.609 c3.51,2.64,4.757,4.641,4.757,7.396c0,1.683-0.638,3.684-2.727,5.047c-1.45,0.929-3.074,1.189-4.612,1.189 C438.006,68.248,436.7,68.045,435.453,67.494z" style="fill: rgb(0, 73, 144);"/>
    <path stroke="#FFFFFF" stroke-width="0.25" stroke-miterlimit="10" d="M455.666,54.325 c0-4.409,0-5.221-0.058-6.149c-0.058-0.986-0.349-1.479-0.986-1.625c-0.319-0.087-0.696-0.116-1.044-0.116 c-0.29,0-0.465-0.058-0.465-0.29c0-0.174,0.232-0.232,0.696-0.232c1.103,0,2.93,0.087,3.771,0.087 c0.725,0,2.437-0.087,3.538-0.087c0.378,0,0.609,0.058,0.609,0.232c0,0.232-0.174,0.29-0.464,0.29s-0.522,0.029-0.87,0.087 c-0.783,0.145-1.016,0.638-1.073,1.653c-0.058,0.928-0.058,1.74-0.058,6.149v5.104c0,2.814,0,5.105,0.115,6.354 c0.087,0.783,0.29,1.305,1.16,1.421c0.406,0.058,1.045,0.116,1.479,0.116c0.319,0,0.465,0.087,0.465,0.232 c0,0.203-0.232,0.289-0.552,0.289c-1.914,0-3.742-0.086-4.525-0.086c-0.667,0-2.494,0.086-3.654,0.086 c-0.377,0-0.58-0.086-0.58-0.289c0-0.146,0.116-0.232,0.464-0.232c0.436,0,0.783-0.059,1.044-0.116 c0.58-0.116,0.755-0.608,0.842-1.45c0.145-1.219,0.145-3.51,0.145-6.324V54.325z" style="fill: rgb(0, 73, 144);"/>
    <path stroke="#FFFFFF" stroke-width="0.25" stroke-miterlimit="10" d="M474.372,47.538l-4.322,0.116 c-1.683,0.058-2.379,0.203-2.813,0.841c-0.29,0.435-0.436,0.783-0.493,1.015c-0.058,0.232-0.146,0.348-0.319,0.348 c-0.203,0-0.261-0.145-0.261-0.464c0-0.464,0.551-3.104,0.609-3.336c0.087-0.377,0.174-0.551,0.348-0.551 c0.232,0,0.522,0.29,1.247,0.348c0.842,0.087,1.943,0.145,2.901,0.145h11.486c0.929,0,1.566-0.087,2.002-0.145 c0.435-0.087,0.667-0.145,0.783-0.145c0.202,0,0.231,0.174,0.231,0.609c0,0.609-0.087,2.61-0.087,3.365 c-0.029,0.29-0.087,0.464-0.261,0.464c-0.232,0-0.29-0.145-0.319-0.58l-0.029-0.319c-0.058-0.754-0.841-1.566-3.423-1.625 l-3.654-0.087V59.43c0,2.67,0,4.961,0.145,6.208c0.087,0.813,0.262,1.45,1.132,1.566c0.405,0.058,1.044,0.116,1.479,0.116 c0.318,0,0.464,0.087,0.464,0.232c0,0.203-0.232,0.289-0.552,0.289c-1.914,0-3.741-0.086-4.554-0.086 c-0.667,0-2.494,0.086-3.655,0.086c-0.377,0-0.58-0.086-0.58-0.289c0-0.146,0.116-0.232,0.465-0.232 c0.435,0,0.783-0.059,1.044-0.116c0.58-0.116,0.754-0.754,0.841-1.595c0.146-1.219,0.146-3.51,0.146-6.18V47.538z" style="fill: rgb(0, 73, 144);"/>
    <path stroke="#FFFFFF" stroke-width="0.25" stroke-miterlimit="10" d="M496.237,60.33 c0-1.566-0.29-2.205-0.667-3.047c-0.203-0.463-4.09-6.845-5.105-8.354c-0.725-1.073-1.45-1.798-2.001-2.117 c-0.378-0.203-0.87-0.377-1.219-0.377c-0.232,0-0.435-0.058-0.435-0.261c0-0.174,0.202-0.261,0.551-0.261 c0.522,0,2.697,0.087,3.654,0.087c0.609,0,1.799-0.087,3.104-0.087c0.29,0,0.435,0.087,0.435,0.261 c0,0.174-0.203,0.203-0.638,0.319c-0.262,0.058-0.406,0.29-0.406,0.522c0,0.232,0.145,0.58,0.348,0.986 c0.406,0.871,4.468,7.861,4.932,8.673c0.29-0.696,3.945-7.078,4.351-7.977c0.29-0.638,0.406-1.131,0.406-1.508 c0-0.29-0.116-0.609-0.609-0.725c-0.261-0.058-0.521-0.116-0.521-0.29c0-0.203,0.145-0.261,0.493-0.261 c0.957,0,1.885,0.087,2.727,0.087c0.638,0,2.553-0.087,3.104-0.087c0.319,0,0.522,0.058,0.522,0.232 c0,0.203-0.232,0.29-0.552,0.29c-0.29,0-0.841,0.116-1.276,0.348c-0.608,0.29-0.928,0.638-1.566,1.421 c-0.957,1.16-5.018,7.977-5.54,9.224c-0.435,1.044-0.435,1.944-0.435,2.901v2.378c0,0.464,0,1.683,0.087,2.901 c0.058,0.841,0.319,1.479,1.189,1.595c0.405,0.058,1.044,0.116,1.45,0.116c0.318,0,0.464,0.087,0.464,0.232 c0,0.203-0.232,0.289-0.609,0.289c-1.827,0-3.654-0.086-4.438-0.086c-0.726,0-2.553,0.086-3.626,0.086 c-0.406,0-0.639-0.058-0.639-0.289c0-0.146,0.146-0.232,0.465-0.232c0.405,0,0.754-0.059,1.015-0.116 c0.58-0.116,0.842-0.754,0.899-1.595c0.087-1.219,0.087-2.438,0.087-2.901V60.33z" style="fill: rgb(0, 73, 144);"/>
  </g>
  <g transform="matrix(1, 0, 0, 1, 0, 1.4210854715202004e-14)"/>
  <g transform="matrix(1, 0, 0, 1, 0, 1.4210854715202004e-14)"/>
  <g transform="matrix(1, 0, 0, 1, 0, 1.4210854715202004e-14)"/>
  <g transform="matrix(1, 0, 0, 1, 0, 1.4210854715202004e-14)"/>
  <g transform="matrix(1, 0, 0, 1, 0, 1.4210854715202004e-14)"/>
  <g transform="matrix(1, 0, 0, 1, 0, 1.4210854715202004e-14)"/>
  <g transform="matrix(1, 0, 0, 1, 0, 1.4210854715202004e-14)"/>
  <g transform="matrix(1, 0, 0, 1, 0, 1.4210854715202004e-14)"/>
  <g transform="matrix(1, 0, 0, 1, 0, 1.4210854715202004e-14)"/>
  <g transform="matrix(1, 0, 0, 1, 0, 1.4210854715202004e-14)"/>
  <g transform="matrix(1, 0, 0, 1, 0, 1.4210854715202004e-14)"/>
  <g transform="matrix(1, 0, 0, 1, 0, 1.4210854715202004e-14)"/>
  <g transform="matrix(1, 0, 0, 1, 0, 1.4210854715202004e-14)"/>
  <g transform="matrix(1, 0, 0, 1, 0, 1.4210854715202004e-14)"/>
  <g transform="matrix(1, 0, 0, 1, 0, 1.4210854715202004e-14)"/>
</svg>